<?xml version="1.0" standalone="no"?>
<!DOCTYPE svg PUBLIC "-//W3C//DTD SVG 1.1//EN" "http://www.w3.org/Graphics/SVG/1.1/DTD/svg11.dtd">
<svg xmlns="http://www.w3.org/2000/svg">
<defs >
<font id="BeVietnam" horiz-adv-x="584" ><font-face
    font-family="Be Vietnam Medium"
    units-per-em="1000"
    panose-1="0 0 6 0 0 0 0 0 0 0"
    ascent="1196"
    descent="-265"
    alphabetic="0" />
<glyph unicode=" " glyph-name="space" horiz-adv-x="230" />
<glyph unicode="!" glyph-name="exclam" horiz-adv-x="255" d="M73 646V746H183V646L164 200H91L73 646ZM101 -9T84 9T66 53Q66 79 83 96T128 114Q154 114 172 97T190 53Q190 27 172 9T128 -9Q101 -9 84 9Z" />
<glyph unicode="&quot;" glyph-name="quotedbl" horiz-adv-x="522" d="M420 734Q358 708 358 655Q358 629 368 623T397 617Q425 616 436 601T448 565Q448 537 431 519T380 501Q337 501 321 525T305 582V620Q305 683 336 720T420 772V734ZM189 732Q128 706 128
654Q128 628 137 622T166 615Q194 614 205 599T217 563Q217 535 200 517T149 499Q74 499 74 581V618Q74 681 105 718T189 770V732Z" />
<glyph unicode="#" glyph-name="numbersign" horiz-adv-x="880" d="M636 433L598 256H756L739 181H582L543 0H457V12L494 181H323L284 0H198V12L234 181H80L97 256H250L289 433H127L144 509H305L346 700H432V688L393 509H565L606 700H691V688L652 509H803L786
433H636ZM548 433H377L339 256H510L548 433Z" />
<glyph unicode="$" glyph-name="dollar" horiz-adv-x="575" d="M542 137T513 91T431 20T313 -8V-81H272V-7Q200 0 149 34T72 119T42 224H148Q153 178 183 136T272 85V307L247 311Q201 323 164 338T94 392T60 498Q60 583 118 636T272 694V763H313V694Q416 688 470
628T531 476H429Q423 521 398 561T313 609V392L352 384Q542 342 542 197Q542 137 513 91ZM272 400V609Q224 604 193 575T162 503Q162 463 191 436T255 404L272 400ZM368 84T404 114T441 191Q441 236 410 262T336 295L313 299V82Q368 84 404 114Z" />
<glyph unicode="%" glyph-name="percent" horiz-adv-x="817" d="M102 421T69 464T35 566Q35 625 68 667T170 710Q239 710 270 668T302 566Q302 506 271 464T170 421Q102 421 69 464ZM545 700H634L273 0H184L545 700ZM207 481T219 506T231 566Q231 651 171 651Q135
651 123 625T110 566Q110 532 123 507T171 481Q207 481 219 506ZM582 -10T549 33T515 135Q515 193 548 236T650 279Q718 279 750 237T782 135Q782 76 750 33T650 -10Q582 -10 549 33ZM687 50T699 74T711 135Q711 170 700 195T651 220Q616 220 604 195T591 135Q591
50 651 50Q687 50 699 74Z" />
<glyph unicode="&amp;" glyph-name="ampersand" horiz-adv-x="645" d="M664 0H545L447 112H441L435 103Q411 63 363 28T241 -7Q187 -7 144 14T75 77T50 174Q50 243 87 288T185 358L218 370V374L213 379Q183 411 162 449T140 539Q140 595 167 634T239 693T336 713Q390
713 437 692T513 628T542 524V501H435V517Q435 568 407 596T336 624Q297 624 269 601T241 534Q241 509 250 487T273 448T318 396L434 264L495 374H599L492 196L664 0ZM390 178L271 312L233 299Q193 285 171 256T149 187Q149 140 179 112T257 83Q306 83 335 108T384
168L390 178Z" />
<glyph unicode="&apos;" glyph-name="quotesingle" horiz-adv-x="299" d="M106 570Q167 596 167 648Q167 674 158 680T129 687Q101 688 90 703T78 739Q78 767 95 784T146 802Q221 802 221 721V683Q221 620 190 584T106 532V570Z" />
<glyph unicode="(" glyph-name="parenleft" horiz-adv-x="470" d="M293 -176T236 -104T144 70T109 291Q109 414 145 517T238 691T359 798L388 768Q346 730 305 659T238 491T212 291Q212 187 238 92T305 -76T388 -186L360 -215Q293 -176 236 -104Z" />
<glyph unicode=")" glyph-name="parenright" horiz-adv-x="510" d="M122 -186Q164 -148 204 -76T271 91T298 291Q298 395 272 490T205 658T122 768L150 798Q214 763 271 692T364 517T401 291Q401 172 366 71T274 -103T150 -215L122 -186Z" />
<glyph unicode="*" glyph-name="asterisk" horiz-adv-x="510" d="M230 543L116 466L82 526L203 585L82 645L116 705L230 627L221 767H289L280 626L395 705L428 645L307 585L428 526L395 466L280 543L289 404H221L230 543Z" />
<glyph unicode="+" glyph-name="plus" horiz-adv-x="582" d="M492 267H336V110H246V267H89V358H246V514H336V358H492V267Z" />
<glyph unicode="," glyph-name="comma" horiz-adv-x="297" d="M102 -129Q165 -102 165 -48Q165 -21 155 -15T125 -8Q97 -7 85 9T73 46Q73 75 91 93T143 112Q221 112 221 28V-11Q221 -77 189 -115T102 -168V-129Z" />
<glyph unicode="-" glyph-name="hyphen" horiz-adv-x="598" d="M117 354H482V270H117V354Z" />
<glyph unicode="." glyph-name="period" horiz-adv-x="289" d="M117 -7T99 12T80 58Q80 85 98 103T145 122Q173 122 191 104T210 58Q210 31 192 12T145 -7Q117 -7 99 12Z" />
<glyph unicode="/" glyph-name="slash" horiz-adv-x="519" d="M393 798H492L146 -168H46L393 798Z" />
<glyph unicode="0" glyph-name="zero" horiz-adv-x="610" d="M175 -11T111 76T47 304V401Q47 541 111 627T304 714Q433 714 497 628T561 401V304Q561 164 497 77T304 -11Q175 -11 111 76ZM375 79T411 136T447 304V400Q447 623 304 623Q161 623 161 400V304Q161
193 197 136T304 79Q375 79 411 136Z" />
<glyph unicode="1" glyph-name="one" horiz-adv-x="503" d="M465 92V0H89V92H234V576H230L88 444V567L230 700H332V92H465Z" />
<glyph unicode="2" glyph-name="two" horiz-adv-x="588" d="M67 89L216 222Q236 240 246 248Q311 303 346 338T406 414T430 500Q430 553 399 589T303 625Q226 625 199 582T171 486V478H69Q69 542 94 596T172 682T302 715Q377 715 428 686T504 608T529 504Q529
443 502 392T438 303T332 206L206 97V92H536V0H67V89Z" />
<glyph unicode="3" glyph-name="three" horiz-adv-x="591" d="M190 -8T129 46T54 181H159Q172 137 207 111T301 84Q369 84 404 118T439 205Q439 262 400 292T301 323H236V404H299Q354 404 391 431T429 514Q429 567 394 598T299 629Q244 629 212 603T170 533H69Q81
609 136 663T300 717Q379 717 431 688T507 614T532 518Q532 465 508 431T456 381T419 365V359Q432 357 460 343T514 292T540 196Q540 141 514 95T435 20T302 -8Q190 -8 129 46Z" />
<glyph unicode="4" glyph-name="four" horiz-adv-x="606" d="M360 171L43 172V259L332 700H462V253H558V171H462V0H360V171ZM361 254V577L144 254H361Z" />
<glyph unicode="5" glyph-name="five" horiz-adv-x="602" d="M239 -5T187 22T105 93T67 188H171Q184 138 222 113T308 88Q375 88 411 130T448 243Q448 316 409 355T307 394Q246 394 220 367T182 313L76 317L95 700H505V605H181L170 397H175Q189 420 225 445T331
471Q396 471 446 444T523 364T551 242Q551 173 523 117T440 28T309 -5Q239 -5 187 22Z" />
<glyph unicode="6" glyph-name="six" horiz-adv-x="590" d="M235 -8T179 18T88 99T52 238Q52 321 83 390T176 548L278 700H381L168 382L171 381L187 397Q242 452 323 452Q385 452 434 424T511 344T539 225Q539 151 507 99T420 19T299 -8Q235 -8 179 18ZM340 77T373
97T422 152T439 224Q439 262 422 296T372 352T293 374Q227 374 190 331T152 225Q152 164 190 121T294 77Q340 77 373 97Z" />
<glyph unicode="7" glyph-name="seven" horiz-adv-x="516" d="M110 12L378 597V605H25V700H479V596L217 0H110V12Z" />
<glyph unicode="8" glyph-name="eight" horiz-adv-x="610" d="M223 -12T167 16T83 91T56 191Q56 239 75 275T122 332T174 362V366Q139 381 110 421T80 519Q80 569 105 613T182 685T309 713Q386 713 437 685T512 613T537 519Q537 461 507 421T443 366V362Q467 354
494 333T541 275T561 191Q561 138 534 92T450 17T308 -12Q223 -12 167 16ZM373 397T406 430T439 512Q439 559 406 593T308 628Q243 628 211 594T178 512Q178 464 210 431T308 397Q373 397 406 430ZM382 75T420 113T458 203Q458 256 420 294T308 333Q234 333 197
295T159 203Q159 150 196 113T308 75Q382 75 420 113Z" />
<glyph unicode="9" glyph-name="nine" horiz-adv-x="590" d="M423 321L420 323L403 306Q349 252 268 252Q205 252 156 280T80 360T52 479Q52 553 84 606T172 687T293 714Q356 714 412 688T503 606T539 468Q539 409 522 356T480 258T414 154L313 0L200 -1L423 321ZM363
330T401 373T439 479Q439 519 422 553T373 608T297 629Q251 629 218 608T169 553T152 480Q152 442 168 408T218 352T297 330Q363 330 401 373Z" />
<glyph unicode=":" glyph-name="colon" horiz-adv-x="306" d="M367 -7T349 12T330 58Q330 85 348 103T395 122Q423 122 441 104T460 58Q460 31 442 12T395 -7Q367 -7 349 12ZM111 394T93 413T74 459Q74 486 92 504T139 523Q167 523 185 505T204 459Q204 432 186
413T139 394Q111 394 93 413Z" />
<glyph unicode=";" glyph-name="semicolon" horiz-adv-x="327" d="M130 394T112 413T93 459Q93 486 111 504T158 523Q186 523 204 505T223 459Q223 432 205 413T158 394Q130 394 112 413ZM119 -128Q182 -101 182 -47Q182 -20 172 -14T142 -7Q114 -6 102 10T90
47Q90 76 108 94T160 113Q238 113 238 29V-10Q238 -76 206 -114T119 -167V-128Z" />
<glyph unicode="&lt;" glyph-name="less" horiz-adv-x="570" d="M470 462L206 329V324L470 191V100H458L101 291V362L458 553H470V462Z" />
<glyph unicode="=" glyph-name="equal" horiz-adv-x="710" d="M120 464H590V377H120V464ZM120 243H590V156H120V243Z" />
<glyph unicode="&gt;" glyph-name="greater" horiz-adv-x="570" d="M113 553L470 362V291L113 100H101V191L365 324V329L101 462V553H113Z" />
<glyph unicode="?" glyph-name="question" horiz-adv-x="577" d="M232 197Q232 244 256 279T330 361Q376 405 398 436T421 508Q421 561 386 590T294 619Q224 619 193 577T161 484V481H57V484Q57 552 86 604T169 686T295 715Q364 715 416 689T497 617T526 513Q526
472 511 438T474 380T417 323Q375 284 355 257T335 197V189H232V197ZM257 -9T240 9T223 53Q223 79 240 96T284 114Q310 114 328 97T346 53Q346 27 328 9T284 -9Q257 -9 240 9Z" />
<glyph unicode="@" glyph-name="at" horiz-adv-x="1011" d="M380 -165T279 -109T124 46T70 274Q70 406 127 505T283 657T509 711Q636 711 734 657T887 511T941 308Q941 229 914 176T842 96T742 70Q654 70 604 160H599Q587 121 553 94T463 66Q407 66 368 95T310
171T291 274Q291 330 310 377T366 454T459 483Q504 483 535 465T580 419H585V476H665V300Q665 249 670 215T694 156T753 131Q805 131 834 174T863 299Q863 397 820 472T695 590T506 633Q399 633 319 590T196 467T152 277Q152 166 197 84T326 -42T528 -87H772V-165H516Q380
-165 279 -109ZM533 137T559 176T586 275Q586 336 560 375T482 414Q431 414 404 375T377 275Q377 215 404 176T482 137Q533 137 559 176Z" />
<glyph unicode="A" glyph-name="A" horiz-adv-x="678" d="M475 193H204L137 0H32L291 700H389L649 0H544L475 193ZM446 275L341 569H336L233 275H446Z" />
<glyph unicode="B" glyph-name="B" horiz-adv-x="624" d="M69 700H354Q423 700 467 674T532 608T552 522Q552 478 534 446T490 396T439 372V366Q467 363 501 346T560 292T586 201Q586 151 564 105T493 30T372 0H69V700ZM324 398Q376 398 414 425T453 510Q453 565
416 590T324 615H170V398H324ZM347 85Q405 85 445 112T486 204Q486 266 446 293T347 320H170V85H347Z" />
<glyph unicode="C" glyph-name="C" horiz-adv-x="708" d="M268 -7T197 40T88 170T51 354Q51 456 88 538T197 667T367 715Q487 715 564 647T666 466H565Q547 536 495 579T368 622Q267 622 213 549T159 354Q159 232 213 159T368 86Q439 86 489 125T560 226H661Q634
121 558 57T367 -7Q268 -7 197 40Z" />
<glyph unicode="D" glyph-name="D" horiz-adv-x="684" d="M69 700H330Q424 700 494 658T604 537T643 351Q643 243 604 164T494 42T329 0H69V700ZM313 95Q413 95 473 159T533 351Q533 479 474 543T313 607H170V95H313Z" />
<glyph unicode="E" glyph-name="E" horiz-adv-x="568" d="M174 608V398H467V315H174V92H511V0H69V700H511V608H174Z" />
<glyph unicode="F" glyph-name="F" horiz-adv-x="514" d="M174 608V397L459 399V315H174V0H70V700H496V608H174Z" />
<glyph unicode="G" glyph-name="G" horiz-adv-x="716" d="M253 -7T185 45T83 179T50 352Q50 445 83 527T187 662T363 715Q481 715 554 651T656 487H547Q528 551 483 586T363 621Q264 621 210 548T155 350Q155 222 212 150T368 78Q427 78 469 103T534 171T557 267L558
291H378V367H657V0H577V112H569Q554 86 538 65T474 18T354 -7Q253 -7 185 45Z" />
<glyph unicode="H" glyph-name="H" horiz-adv-x="679" d="M610 700V0H506V310H173V0H69V700H173V393H506V700H610Z" />
<glyph unicode="I" glyph-name="I" horiz-adv-x="251" d="M73 700H178V0H73V700Z" />
<glyph unicode="J" glyph-name="J" horiz-adv-x="353" d="M73 -3T47 4V79Q71 75 93 75Q129 75 145 88T166 120T170 168V700H273V141Q273 84 244 41T120 -3Q73 -3 47 4Z" />
<glyph unicode="K" glyph-name="K" horiz-adv-x="634" d="M68 700H171V399H176L442 700H566L296 400L581 0H462L232 326L171 260V0H68V700Z" />
<glyph unicode="L" glyph-name="L" horiz-adv-x="530" d="M492 92V0H69V700H174L173 92H492Z" />
<glyph unicode="M" glyph-name="M" horiz-adv-x="828" d="M69 700H222L413 199H416L606 700H759V0H657V545H653L450 0H378L175 545H171V0H69V700Z" />
<glyph unicode="N" glyph-name="N" horiz-adv-x="708" d="M69 700H187L533 163H536V700H639V0H519L175 526H172V0H69V700Z" />
<glyph unicode="O" glyph-name="O" horiz-adv-x="732" d="M265 -7T194 39T85 167T48 352Q48 455 85 537T194 667T366 715Q465 715 536 668T645 539T682 351Q682 247 645 166T537 39T366 -7Q265 -7 194 39ZM429 87T476 121T548 215T573 353Q573 430 548 490T476
586T365 621Q301 621 254 586T182 490T157 353Q157 277 182 217T254 122T365 87Q429 87 476 121Z" />
<glyph unicode="P" glyph-name="P" horiz-adv-x="585" d="M399 700T454 666T534 579T559 466Q559 407 534 355T454 270T314 236H170V0H69V700H314Q399 700 454 666ZM367 324T413 356T459 466Q459 544 413 575T300 607H170V324H300Q367 324 413 356Z" />
<glyph unicode="Q" glyph-name="Q" horiz-adv-x="729" d="M682 261T654 188T572 65L663 -52H567L508 23Q445 -7 366 -7Q265 -7 194 39T85 167T48 352Q48 455 85 537T194 667T366 715Q465 715 536 668T645 539T682 351Q682 261 654 188ZM409 87T446 104L316 271H412L507
149Q539 185 556 237T573 353Q573 430 548 490T476 586T365 621Q301 621 254 586T182 490T157 353Q157 277 182 217T254 122T365 87Q409 87 446 104Z" />
<glyph unicode="R" glyph-name="R" horiz-adv-x="606" d="M287 271H172V0H69V700H314Q399 700 454 669T534 588T559 484Q559 412 518 355T392 279L568 0H456L287 271ZM172 358H300Q367 358 413 386T459 484Q459 552 413 580T300 608H172V358Z" />
<glyph unicode="S" glyph-name="S" horiz-adv-x="601" d="M225 -8T167 25T79 112T49 223V228H163V223Q163 191 178 160T226 107T309 85Q370 85 408 116T447 200Q447 244 418 270T343 305L247 324Q184 337 126 377T67 513Q67 574 96 620T179 690T300 715Q378 715
434 684T518 604T547 500V496H433V499Q433 526 420 555T377 604T297 625Q239 625 206 594T172 515Q172 474 200 448T275 413L364 395Q441 379 498 336T556 203Q556 141 525 93T437 19T307 -8Q225 -8 167 25Z" />
<glyph unicode="T" glyph-name="T" horiz-adv-x="590" d="M547 608H346V0H243V608H42V700H547V608Z" />
<glyph unicode="U" glyph-name="U" horiz-adv-x="684" d="M210 -9T136 72T62 308V700H164V312Q164 227 200 159T343 90Q446 90 482 158T519 312V700H622V308Q622 153 548 72T343 -9Q210 -9 136 72Z" />
<glyph unicode="V" glyph-name="V" horiz-adv-x="641" d="M13 700H118L318 107H324L524 700H628L391 0H251L13 700Z" />
<glyph unicode="W" glyph-name="W" horiz-adv-x="994" d="M14 700H117L262 129H268L450 700H543L725 129H731L877 700H980L795 0H663L500 517H494L330 0H198L14 700Z" />
<glyph unicode="X" glyph-name="X" horiz-adv-x="664" d="M267 350L37 700H151L331 423H337L515 700H630L399 350L631 0H515L337 277H331L151 0H36L267 350Z" />
<glyph unicode="Y" glyph-name="Y" horiz-adv-x="624" d="M260 -1V250L31 700H142L308 361H315L480 700H591L363 250V0L260 -1Z" />
<glyph unicode="Z" glyph-name="Z" horiz-adv-x="616" d="M50 95L429 603V605H50V700H554V605L174 97V95H554V0H50V95Z" />
<glyph unicode="[" glyph-name="bracketleft" horiz-adv-x="452" d="M165 738V-104H376V-186H81V820H376V738H165Z" />
<glyph unicode="\" glyph-name="backslash" horiz-adv-x="519" d="M373 -168L26 798H126L472 -168H373Z" />
<glyph unicode="]" glyph-name="bracketright" horiz-adv-x="445" d="M365 -186H70V-104H281V738H70V820H365V-186Z" />
<glyph unicode="^" glyph-name="asciicircum" horiz-adv-x="420" d="M25 579L147 758H267L389 579V567H298L209 699H205L116 567H25V579Z" />
<glyph unicode="_" glyph-name="underscore" horiz-adv-x="704" d="M109 84H596V0H109V84Z" />
<glyph unicode="`" glyph-name="grave" horiz-adv-x="266" d="M31 804H137L237 620H154L31 804Z" />
<glyph unicode="a" glyph-name="a" horiz-adv-x="619" d="M192 -7T143 28T69 125T43 266Q43 346 69 408T144 505T263 541Q332 541 373 509T435 435H442V527H546V0H442V102H435Q413 58 371 26T260 -7Q192 -7 143 28ZM366 79T403 133T441 267Q441 346 404 400T295
454Q223 454 186 400T149 268Q149 188 185 134T295 79Q366 79 403 133Z" />
<glyph unicode="b" glyph-name="b" horiz-adv-x="617" d="M286 -7T244 25T180 102H173V0H68V750H173V435H180Q201 477 242 509T352 541Q421 541 470 506T545 408T571 266Q571 187 546 125T471 28T354 -7Q286 -7 244 25ZM392 79T428 133T465 267Q465 346 429 399T320
453Q249 453 212 399T174 266Q174 187 211 133T320 79Q392 79 428 133Z" />
<glyph unicode="c" glyph-name="c" horiz-adv-x="575" d="M215 -8T159 31T76 132T48 267Q48 338 75 400T159 502T298 541Q401 541 461 482T533 334H432Q423 388 390 421T299 455Q225 455 188 401T151 267Q151 187 188 133T299 79Q356 79 389 112T432 199H533Q521
111 461 52T298 -8Q215 -8 159 31Z" />
<glyph unicode="d" glyph-name="d" horiz-adv-x="617" d="M195 -7T146 28T72 125T46 266Q46 346 71 408T146 505T265 541Q334 541 375 509T437 435H444V750H549V0H444V102H437Q415 58 373 26T263 -7Q195 -7 146 28ZM368 79T405 133T443 266Q443 345 406 399T297
453Q224 453 188 400T152 267Q152 187 188 133T297 79Q368 79 405 133Z" />
<glyph unicode="e" glyph-name="e" horiz-adv-x="581" d="M214 -7T158 32T75 133T48 267Q48 338 75 400T158 502T297 541Q405 541 469 471T533 266V237H149V230Q149 190 167 155T218 99T294 77Q341 77 375 100T424 164H526Q506 90 447 42T296 -7Q214 -7 158 32ZM432
308Q428 389 392 425T295 462Q231 462 193 420T152 308H432Z" />
<glyph unicode="f" glyph-name="f" horiz-adv-x="378" d="M257 664T241 651T222 620T218 572V527H341V445H218V0H115L114 445H44V527H114V591Q114 738 264 738Q286 738 308 736T341 730V659Q319 664 291 664Q257 664 241 651Z" />
<glyph unicode="g" glyph-name="g" horiz-adv-x="620" d="M278 -215T261 -211T222 -199V-114Q235 -118 256 -121T299 -125Q375 -125 410 -83T446 28V115H438Q419 72 375 40T264 8Q199 8 150 41T75 135T48 275Q48 354 74 414T150 508T265 542Q333 542 377 508T439
430H446V527H551V28Q551 -26 530 -81T454 -175T310 -215Q278 -215 261 -211ZM370 94T407 148T445 277Q445 349 408 402T300 455Q229 455 192 403T155 277Q155 202 192 148T300 94Q370 94 407 148Z" />
<glyph unicode="h" glyph-name="h" horiz-adv-x="608" d="M69 746H173V437H181Q200 481 243 511T349 541Q417 541 461 509T525 426T545 318V0H442V303Q442 375 406 413T308 451Q248 451 211 411T173 303V0H69V746Z" />
<glyph unicode="i" glyph-name="i" horiz-adv-x="261" d="M79 527H182V0H79V527ZM103 623T85 641T67 686Q67 713 85 731T130 749Q157 749 175 731T193 686Q193 660 175 642T130 623Q103 623 85 641Z" />
<glyph unicode="j" glyph-name="j" horiz-adv-x="263" d="M110 623T93 641T75 686Q75 713 92 731T137 749Q164 749 182 731T201 686Q201 660 183 642T137 623Q110 623 93 641ZM-5 -222T-41 -213V-139Q-24 -143 5 -143Q41 -143 57 -130T78 -99T82 -51V537H185L186
-78Q186 -222 35 -222Q-5 -222 -41 -213Z" />
<glyph unicode="k" glyph-name="k" horiz-adv-x="531" d="M73 746H178V328H182L369 527H485L266 289L494 0H376L182 256H178V0H73V746Z" />
<glyph unicode="l" glyph-name="l" horiz-adv-x="323" d="M151 -4T120 16T81 67T73 149L74 750H177V167Q177 130 180 112T200 83T251 72Q270 72 285 75V1Q243 -4 215 -4Q151 -4 120 16Z" />
<glyph unicode="m" glyph-name="m" horiz-adv-x="945" d="M69 527H172V434H180Q183 446 200 471T252 518T340 541Q397 541 434 515T490 459T508 421H516Q521 435 538 462T595 515T694 541Q759 541 801 508T863 424T882 319V0H779V309Q779 377 744 412T656 448Q602
448 565 412T527 309V0H424V309Q424 377 389 412T301 448Q247 448 210 412T172 309V0H69V527Z" />
<glyph unicode="n" glyph-name="n" horiz-adv-x="608" d="M69 527H173V437H181Q200 481 243 511T349 541Q417 541 461 509T525 426T545 318V0H442V303Q442 375 406 413T309 451Q246 451 210 410T173 303V0H69V527Z" />
<glyph unicode="o" glyph-name="o" horiz-adv-x="592" d="M215 -7T159 31T76 131T48 266Q48 339 75 401T159 502T296 541Q377 541 433 503T517 402T545 267Q545 195 517 133T433 32T296 -7Q215 -7 159 31ZM365 79T403 133T442 268Q442 349 404 402T296 455Q228
455 189 402T150 268Q150 187 188 133T296 79Q365 79 403 133Z" />
<glyph unicode="p" glyph-name="p" horiz-adv-x="621" d="M286 -7T244 25T180 102H173V-205H68V527H173V435H180Q201 477 242 509T352 541Q421 541 470 506T545 408T571 266Q571 187 546 125T471 28T354 -7Q286 -7 244 25ZM392 79T428 133T465 267Q465 346 429
399T320 453Q249 453 212 399T174 266Q174 187 211 133T320 79Q392 79 428 133Z" />
<glyph unicode="q" glyph-name="q" horiz-adv-x="621" d="M199 -7T150 28T76 125T50 266Q50 346 75 408T150 505T269 541Q339 541 380 509T441 435H449V527H553V-205H449V102H441Q420 59 378 26T267 -7Q199 -7 150 28ZM373 79T410 133T447 266Q447 345 410 399T302
453Q229 453 193 400T156 267Q156 187 192 133T302 79Q373 79 410 133Z" />
<glyph unicode="r" glyph-name="r" horiz-adv-x="364" d="M68 527H171V443H177Q190 478 223 502T310 527Q324 527 334 526T354 521L350 423Q323 431 294 431Q235 431 203 398T171 287V0H68V527Z" />
<glyph unicode="s" glyph-name="s" horiz-adv-x="495" d="M189 -7T142 18T70 83T45 168V173H147V169Q147 133 176 105T257 76Q300 76 328 97T356 154Q356 185 334 202T278 226L212 236Q148 246 103 281T58 385Q58 459 111 500T248 541Q309 541 354 519T422 459T445
379V375H343V377Q343 407 319 435T245 463Q203 463 177 442T151 387Q151 358 173 340T228 317L300 304Q366 292 410 257T455 155Q455 107 429 70T357 13T254 -7Q189 -7 142 18Z" />
<glyph unicode="t" glyph-name="t" horiz-adv-x="402" d="M229 445V163Q229 126 232 109T251 82T303 72Q328 72 352 78V5Q345 2 319 -1T267 -4Q204 -4 173 14T134 62T125 140L126 445H31V527H126V700H229V527H352V445H229Z" />
<glyph unicode="u" glyph-name="u" horiz-adv-x="598" d="M535 0H431V95H424Q404 51 362 21T260 -9Q192 -9 150 23T88 106T69 213V527H172V228Q172 158 207 119T300 80Q361 80 396 121T431 228V527H535V0Z" />
<glyph unicode="v" glyph-name="v" horiz-adv-x="554" d="M28 527H127L275 107H280L427 527H526L340 0H213L28 527Z" />
<glyph unicode="w" glyph-name="w" horiz-adv-x="819" d="M29 527H126L234 113H239L364 527H456L583 113H588L693 527H791L649 0H520L414 363H407L301 0H172L29 527Z" />
<glyph unicode="x" glyph-name="x" horiz-adv-x="562" d="M201 264L31 527H147L270 324H273L396 527H511L341 264L510 0H395L273 202H270L148 0H32L201 264Z" />
<glyph unicode="y" glyph-name="y" horiz-adv-x="540" d="M267 -112T252 -137T202 -186T109 -210Q79 -210 45 -202V-127Q69 -131 87 -131Q120 -131 140 -119T171 -88T198 -32L220 21L26 527H133L269 136H275L418 527H524L283 -74Q267 -112 252 -137Z" />
<glyph unicode="z" glyph-name="z" horiz-adv-x="498" d="M52 83L341 442V444H67V529H455V446L165 87V84H455V0H52V83Z" />
<glyph unicode="{" glyph-name="braceleft" horiz-adv-x="454" d="M250 -226T212 -190T174 -59V184Q174 232 170 250T150 274T91 280V332Q133 332 149 338T170 362T174 429V672Q174 766 212 802T325 838H399V765H333Q292 765 278 748T264 687V455Q264 383 253
350T207 312V301Q241 296 252 263T264 158V-74Q264 -118 278 -135T333 -152H399V-226H325Q250 -226 212 -190Z" />
<glyph unicode="|" glyph-name="bar" horiz-adv-x="294" d="M104 950H190V-243H104V950Z" />
<glyph unicode="}" glyph-name="braceright" horiz-adv-x="465" d="M108 -226V-152H174Q214 -152 228 -135T243 -74V158Q243 229 254 262T300 301V312Q266 316 255 349T243 455V687Q243 731 229 748T174 765H108V838H182Q257 838 295 802T333 672V429Q333 381
337 363T357 338T416 332V280Q373 280 357 274T337 250T333 184V-59Q333 -153 295 -189T182 -226H108Z" />
<glyph unicode="~" glyph-name="asciitilde" horiz-adv-x="577" d="M99 349T110 376T148 421T215 440Q239 440 257 434T300 415Q321 405 334 400T362 395Q388 395 400 409T414 440H478Q477 397 450 361T363 325Q338 325 319 331T276 350Q258 359 245 364T216 369Q189
369 177 356T162 324H98Q99 349 110 376Z" />
<glyph unicode="&#xa0;" glyph-name="uni00A0" horiz-adv-x="230" />
<glyph unicode="&#xa1;" glyph-name="exclamdown" horiz-adv-x="244" d="M154 505T172 487T190 443Q190 417 172 400T128 382Q101 382 84 399T66 443Q66 469 83 487T128 505Q154 505 172 487ZM164 296L183 -150V-250H73V-150L91 296H164Z" />
<glyph unicode="&#xa2;" glyph-name="cent" horiz-adv-x="600" d="M363 83T393 115T432 199H533Q521 114 465 55T310 -8V-68H271V-7Q197 0 147 40T73 139T48 267Q48 334 72 394T147 493T271 540V608H310V541Q407 537 464 478T533 334H432Q424 385 393 418T310
455V79Q363 83 393 115ZM151 195T181 144T271 81V453Q211 442 181 391T151 267Q151 195 181 144Z" />
<glyph unicode="&#xa3;" glyph-name="sterling" horiz-adv-x="605" d="M554 89V0H43V90H65Q94 90 123 105T172 151T191 222Q191 246 185 267H53V328H156Q149 339 133 361Q102 406 86 439T70 519Q70 568 93 612T167 686T301 715Q404 715 456 672T523 583T538 506V492H425V503Q425
526 416 554T379 605T302 628Q243 628 214 596T185 521Q185 492 197 468T233 408Q245 390 258 369T279 328H429V267H292Q293 262 293 251Q293 200 272 166T227 116T187 94V89H554Z" />
<glyph unicode="&#xa4;" glyph-name="currency" horiz-adv-x="601" d="M424 168Q367 129 300 129Q232 129 176 169L114 102L58 154L120 221Q75 280 75 356Q75 432 124 494L62 560L118 611L180 544Q235 580 300 580Q364 580 420 545L482 612L538 560L476 494Q526
431 526 356Q526 283 481 220L542 153L486 101L424 168ZM340 208T373 229T426 284T446 356Q446 396 426 429T372 481T297 500Q258 500 225 481T173 428T154 356Q154 315 174 281T227 228T299 208Q340 208 373 229Z" />
<glyph unicode="&#xa5;" glyph-name="yen" horiz-adv-x="633" d="M587 691L384 291H501V232H363V175H501V116H363V0L260 -1V116H122V175H260V232H122V291H239L35 691V700H142L308 361H315L480 700H587V691Z" />
<glyph unicode="&#xa6;" glyph-name="brokenbar" horiz-adv-x="294" d="M104 951H190V419H104V951ZM104 255H190V-243H104V255Z" />
<glyph unicode="&#xa7;" glyph-name="section" horiz-adv-x="555" d="M212 -9T163 15T88 79T60 161H164Q165 143 177 123T214 89T279 74Q321 74 349 92T377 141Q377 169 354 185T300 205L233 218Q165 229 108 265T50 372Q50 446 125 476V479Q79 510 79 569Q79
637 132 675T271 714Q365 714 418 669T478 559H373Q367 590 344 613T271 637Q226 637 201 618T176 570Q176 545 197 529T252 507L327 494Q403 482 456 445T509 342Q509 306 490 279T435 233V231Q456 218 468 195T480 143Q480 98 455 64T384 10T280 -9Q212 -9 163
15ZM373 278T389 297T405 341Q405 370 377 390T307 416L222 432Q189 434 168 417T147 372Q147 343 170 326T234 302L349 280Q373 278 389 297Z" />
<glyph unicode="&#xa8;" glyph-name="dieresis" horiz-adv-x="401" d="M285 623T267 641T249 686Q249 713 267 731T312 749Q339 749 357 731T375 686Q375 660 357 642T312 623Q285 623 267 641ZM70 623T52 641T34 686Q34 713 52 731T97 749Q124 749 142 731T160
686Q160 660 142 642T97 623Q70 623 52 641Z" />
<glyph unicode="&#xa9;" glyph-name="copyright" horiz-adv-x="809" d="M285 -11T203 44T82 183T43 351Q43 436 81 519T202 657T408 712Q533 712 613 657T730 518T766 351Q766 269 730 186T613 46T408 -11Q285 -11 203 44ZM508 57T574 103T669 217T699 352Q699
420 670 487T574 599T407 645Q307 645 241 601T143 489T111 352Q111 283 142 215T240 102T407 57Q508 57 574 103ZM346 143T300 172T230 248T206 350Q206 404 230 451T299 528T408 558Q484 558 535 517T603 412L538 401Q526 445 493 470T410 496Q347 496 310 455T273
351Q273 288 310 247T411 205Q460 205 493 230T538 301L603 290Q588 227 538 185T410 143Q346 143 300 172Z" />
<glyph unicode="&#xaa;" glyph-name="ordfeminine" horiz-adv-x="159" d="M34 385T19 405T4 458Q4 491 19 511T60 531Q88 531 99 508H101V528H146V387H101V409H99Q95 401 86 393T60 385Q34 385 19 405ZM90 420T96 431T103 458Q103 472 97 484T76 496Q61 496 55
485T48 458Q48 443 54 432T76 420Q90 420 96 431Z" />
<glyph unicode="&#xab;" glyph-name="guillemotleft" horiz-adv-x="658" d="M341 102H237L38 314L237 527H341L146 314L341 102ZM620 102H516L318 314L516 527H620L425 314L620 102Z" />
<glyph unicode="&#xac;" glyph-name="logicalnot" horiz-adv-x="655" d="M575 269H492V446H80V530H575V269Z" />
<glyph unicode="&#xad;" glyph-name="uni00AD" horiz-adv-x="600" d="M117 354H482V270H117V354Z" />
<glyph unicode="&#xae;" glyph-name="registered" horiz-adv-x="340" d="M128 450T100 469T59 517T45 575Q45 604 58 633T100 681T171 700Q214 700 242 681T282 633T295 575Q295 547 283 518T242 470T171 450Q128 450 100 469ZM219 482T242 511T265 576Q265 611
242 640T171 669Q124 669 101 640T77 576Q77 540 100 511T171 482Q219 482 242 511ZM128 637H182Q202 637 211 626T220 599Q220 570 198 563L224 516V514H195L172 561H154V514H128V637ZM176 580Q194 580 194 597Q194 614 176 614H154V580H176Z" />
<glyph unicode="&#xaf;" glyph-name="overscore" horiz-adv-x="367" d="M30 694H337V643H30V694Z" />
<glyph unicode="&#xb0;" glyph-name="degree" horiz-adv-x="308" d="M114 669T85 699T55 770Q55 811 84 840T155 870Q197 870 226 841T256 770Q256 729 227 699T155 669Q114 669 85 699ZM176 720T190 735T205 770Q205 791 191 805T155 819Q135 819 121 805T106
770Q106 750 120 735T155 720Q176 720 190 735Z" />
<glyph unicode="&#xb1;" glyph-name="plusminus" horiz-adv-x="606" d="M508 406V316H351V159H261V316H104V406H261V562H351V406H508ZM104 70H508L507 0H104V70Z" />
<glyph unicode="&#xb2;" glyph-name="uni00B2" horiz-adv-x="306" d="M26 439L95 504Q112 518 111 517Q163 560 187 588T212 649Q212 673 198 689T154 706Q117 706 104 684T91 632H28Q28 689 61 725T154 762Q211 762 243 730T275 651Q275 607 253 577T188 510L171
495L112 441V438H280V380H26V439Z" />
<glyph unicode="&#xb3;" glyph-name="uni00B3" horiz-adv-x="319" d="M101 375T65 406T26 484H92Q98 461 117 448T162 435Q194 435 211 451T228 492Q228 518 209 533T162 548H128V601H159Q185 601 204 614T224 653Q224 678 206 693T160 708Q133 708 118 695T98
661H33Q40 704 71 733T161 763Q226 763 257 731T289 655Q289 628 277 610T250 582T231 573V572Q232 572 247 566T277 539T293 487Q293 444 261 410T162 375Q101 375 65 406Z" />
<glyph unicode="&#xb4;" glyph-name="acute" horiz-adv-x="266" d="M31 620L130 804H237L114 620H31Z" />
<glyph unicode="&#xb5;" glyph-name="uni00B5" horiz-adv-x="651" d="M64 527H167V219Q167 164 185 121T270 78Q330 78 364 124T398 236V527H503V167Q503 131 506 113T526 83T577 72Q597 72 612 75V1Q572 -4 542 -4Q472 -4 442 21T405 97H397Q384 66 351 30T250
-6Q221 -6 200 3T156 29L154 26Q163 12 165 -23T167 -155V-211H63L64 527Z" />
<glyph unicode="&#xb6;" glyph-name="paragraph" horiz-adv-x="551" d="M482 0H415V610H345V0H278V333H214Q121 333 72 384T22 514Q22 565 44 607T109 674T214 700H482V0Z" />
<glyph unicode="&#xb7;" glyph-name="middot" horiz-adv-x="292" d="M118 300T100 319T81 365Q81 392 99 410T146 429Q174 429 192 411T211 365Q211 338 193 319T146 300Q118 300 100 319Z" />
<glyph unicode="&#xb8;" glyph-name="cedilla" horiz-adv-x="250" d="M133 -190T149 -177T166 -142Q166 -119 150 -111T115 -102H30V-99L60 0H118L100 -53H122Q170 -53 195 -78T220 -143Q220 -187 190 -218T101 -249Q68 -249 39 -238L40 -182Q72 -190 101 -190Q133
-190 149 -177Z" />
<glyph unicode="&#xb9;" glyph-name="uni00B9" horiz-adv-x="266" d="M240 446V388H27V446H106V684H104L26 614V690L105 762H168V446H240Z" />
<glyph unicode="&#xba;" glyph-name="ordmasculine" horiz-adv-x="163" d="M49 385T31 406T13 459Q13 490 31 512T82 534Q115 534 133 512T152 459Q152 429 134 407T82 385Q49 385 31 406ZM96 417T104 429T112 459Q112 477 104 489T82 501Q67 501 60 489T52 459Q52
442 59 430T82 417Q96 417 104 429Z" />
<glyph unicode="&#xbb;" glyph-name="guillemotright" horiz-adv-x="658" d="M317 527H421L620 314L421 102H317L512 314L317 527ZM38 527H142L341 314L142 102H38L233 314L38 527Z" />
<glyph unicode="&#xbc;" glyph-name="onequarter" horiz-adv-x="821" d="M39 350V414H115V613H113L38 546V633L114 700H185V414H253V350H39ZM675 688L262 0H175V12L586 700H675V688ZM783 138V83H741V0H669V83H515V137L649 350H741V138H783ZM669 287L571 139H669V287Z" />
<glyph unicode="&#xbd;" glyph-name="onehalf" horiz-adv-x="857" d="M253 350H39V414H115V613H113L38 546V633L114 700H185V414H253V350ZM697 688L286 0H198V12L609 700H697V688ZM818 64V0H576V62L634 115Q640 119 674 144T726 195T745 246Q745 267 734 280T698
294Q667 294 656 275T645 232H578Q578 290 611 324T700 358Q754 358 784 328T814 252Q814 220 800 195T772 157T719 110L671 66V64H818Z" />
<glyph unicode="&#xbe;" glyph-name="threequarters" horiz-adv-x="847" d="M110 338T76 367T38 445H111Q116 425 131 414T170 403Q198 403 212 417T226 452Q226 474 211 486T171 499H140V554H168Q190 554 205 564T221 597Q221 618 207 630T169 643Q147 643 133
633T116 605H45Q52 648 81 676T170 705Q232 705 262 674T293 602Q293 576 282 559T257 534T240 526V523Q244 523 258 515T285 489T297 444Q297 402 266 370T169 338Q110 338 76 367ZM198 12L609 700H697V688L286 0H198V12ZM694 83H541V137L674 350H766V138H808V83H766V0H694V83ZM695
139V287L597 139H695Z" />
<glyph unicode="&#xbf;" glyph-name="questiondown" horiz-adv-x="577" d="M325 477T342 459T360 415Q360 389 343 372T299 354Q272 354 255 371T237 415Q237 441 254 459T299 477Q325 477 342 459ZM351 271Q351 224 326 189T252 107Q206 63 184 32T161 -40Q161
-93 196 -122T288 -151Q358 -151 389 -109T421 -16V-13H526V-16Q526 -84 497 -136T414 -218T288 -247Q219 -247 167 -221T86 -149T57 -45Q57 -4 72 30T109 88T166 145Q208 184 228 211T248 271V279H351V271Z" />
<glyph unicode="&#xc0;" glyph-name="Agrave" horiz-adv-x="678" d="M475 193H204L137 0H32L291 700H389L649 0H544L475 193ZM446 275L341 569H336L233 275H446ZM172 957H278L378 773H295L172 957Z" />
<glyph unicode="&#xc1;" glyph-name="Aacute" horiz-adv-x="678" d="M475 193H204L137 0H32L291 700H389L649 0H544L475 193ZM446 275L341 569H336L233 275H446ZM300 773L399 957H506L383 773H300Z" />
<glyph unicode="&#xc2;" glyph-name="Acircumflex" horiz-adv-x="678" d="M475 193H204L137 0H32L291 700H389L649 0H544L475 193ZM446 275L341 569H336L233 275H446ZM298 916H382L517 766H417L341 850H337L261 766H163L298 916Z" />
<glyph unicode="&#xc3;" glyph-name="Atilde" horiz-adv-x="678" d="M475 193H204L137 0H32L291 700H389L649 0H544L475 193ZM446 275L341 569H336L233 275H446ZM187 839T208 874T279 909Q299 909 315 902T353 880Q356 878 365 872T383 863T398 860Q415 860 422
874T428 909H486Q490 862 469 828T398 793Q378 793 363 800T324 821Q309 831 299 836T279 841Q261 841 254 827T249 792H190Q187 839 208 874Z" />
<glyph unicode="&#xc4;" glyph-name="Adieresis" horiz-adv-x="678" d="M475 193H204L137 0H32L291 700H389L649 0H544L475 193ZM446 275L341 569H336L233 275H446ZM423 796T405 814T387 859Q387 886 405 904T450 922Q477 922 495 904T513 859Q513 833 495 815T450
796Q423 796 405 814ZM208 796T190 814T172 859Q172 886 190 904T235 922Q262 922 280 904T298 859Q298 833 280 815T235 796Q208 796 190 814Z" />
<glyph unicode="&#xc5;" glyph-name="Aring" horiz-adv-x="678" d="M475 193H204L137 0H32L291 700H389L649 0H544L475 193ZM446 275L341 569H336L233 275H446ZM301 781T274 808T247 873Q247 911 273 937T338 964Q376 964 403 937T430 873Q430 836 403 809T338
781Q301 781 274 808ZM357 828T370 841T383 873Q383 892 370 905T338 918Q319 918 306 905T293 873Q293 854 306 841T338 828Q357 828 370 841Z" />
<glyph unicode="&#xc6;" glyph-name="AE" horiz-adv-x="959" d="M565 608V398H858V315H565V92H902V0H460V193H233L131 0H15L381 700H902V608H565ZM460 275V608H451L276 275H460Z" />
<glyph unicode="&#xc7;" glyph-name="Ccedilla" horiz-adv-x="708" d="M439 86T489 125T560 226H661Q636 128 567 65T394 -6L379 -51H401Q449 -51 474 -76T499 -141Q499 -185 469 -216T380 -247Q347 -247 318 -236L319 -180Q351 -188 380 -188Q412 -188 428 -175T445
-140Q445 -117 429 -109T394 -100H309V-97L337 -6Q247 1 183 50T85 178T51 354Q51 456 88 538T197 667T367 715Q487 715 564 647T666 466H565Q547 536 495 579T368 622Q267 622 213 549T159 354Q159 232 213 159T368 86Q439 86 489 125Z" />
<glyph unicode="&#xc8;" glyph-name="Egrave" horiz-adv-x="568" d="M174 608V398H467V315H174V92H511V0H69V700H511V608H174ZM122 957H228L328 773H245L122 957Z" />
<glyph unicode="&#xc9;" glyph-name="Eacute" horiz-adv-x="568" d="M174 608V398H467V315H174V92H511V0H69V700H511V608H174ZM250 773L349 957H456L333 773H250Z" />
<glyph unicode="&#xca;" glyph-name="Ecircumflex" horiz-adv-x="568" d="M174 608V398H467V315H174V92H511V0H69V700H511V608H174ZM248 916H332L467 766H367L291 850H287L211 766H113L248 916Z" />
<glyph unicode="&#xcb;" glyph-name="Edieresis" horiz-adv-x="568" d="M174 608V398H467V315H174V92H511V0H69V700H511V608H174ZM373 796T355 814T337 859Q337 886 355 904T400 922Q427 922 445 904T463 859Q463 833 445 815T400 796Q373 796 355 814ZM158 796T140
814T122 859Q122 886 140 904T185 922Q212 922 230 904T248 859Q248 833 230 815T185 796Q158 796 140 814Z" />
<glyph unicode="&#xcc;" glyph-name="Igrave" horiz-adv-x="251" d="M73 700H178V0H73V700ZM-41 957H65L165 773H82L-41 957Z" />
<glyph unicode="&#xcd;" glyph-name="Iacute" horiz-adv-x="251" d="M73 700H178V0H73V700ZM87 773L186 957H293L170 773H87Z" />
<glyph unicode="&#xce;" glyph-name="Icircumflex" horiz-adv-x="251" d="M73 700H178V0H73V700ZM85 916H169L304 766H204L128 850H124L48 766H-50L85 916Z" />
<glyph unicode="&#xcf;" glyph-name="Idieresis" horiz-adv-x="251" d="M73 700H178V0H73V700ZM210 796T192 814T174 859Q174 886 192 904T237 922Q264 922 282 904T300 859Q300 833 282 815T237 796Q210 796 192 814ZM-5 796T-23 814T-41 859Q-41 886 -23 904T22
922Q49 922 67 904T85 859Q85 833 67 815T22 796Q-5 796 -23 814Z" />
<glyph unicode="&#xd0;" glyph-name="Eth" horiz-adv-x="712" d="M436 700T512 659T630 540T671 350Q671 238 630 160T512 40T330 -1H97V322H43V393H97V700H331Q436 700 512 659ZM371 94T423 108T519 180T562 350Q562 464 519 520T424 592T314 607H198V393H322V322H198V94H314Q371
94 423 108Z" />
<glyph unicode="&#xd1;" glyph-name="Ntilde" horiz-adv-x="708" d="M69 700H187L533 163H536V700H639V0H519L175 526H172V0H69V700ZM203 839T224 874T295 909Q315 909 331 902T369 880Q372 878 381 872T399 863T414 860Q431 860 438 874T444 909H502Q506 862
485 828T414 793Q394 793 379 800T340 821Q325 831 315 836T295 841Q277 841 270 827T265 792H206Q203 839 224 874Z" />
<glyph unicode="&#xd2;" glyph-name="Ograve" horiz-adv-x="732" d="M265 -7T194 39T85 167T48 352Q48 455 85 537T194 667T366 715Q465 715 536 668T645 539T682 351Q682 247 645 166T537 39T366 -7Q265 -7 194 39ZM429 87T476 121T548 215T573 353Q573 430 548
490T476 586T365 621Q301 621 254 586T182 490T157 353Q157 277 182 217T254 122T365 87Q429 87 476 121ZM199 957H305L405 773H322L199 957Z" />
<glyph unicode="&#xd3;" glyph-name="Oacute" horiz-adv-x="732" d="M265 -7T194 39T85 167T48 352Q48 455 85 537T194 667T366 715Q465 715 536 668T645 539T682 351Q682 247 645 166T537 39T366 -7Q265 -7 194 39ZM429 87T476 121T548 215T573 353Q573 430 548
490T476 586T365 621Q301 621 254 586T182 490T157 353Q157 277 182 217T254 122T365 87Q429 87 476 121ZM327 773L426 957H533L410 773H327Z" />
<glyph unicode="&#xd4;" glyph-name="Ocircumflex" horiz-adv-x="732" d="M265 -7T194 39T85 167T48 352Q48 455 85 537T194 667T366 715Q465 715 536 668T645 539T682 351Q682 247 645 166T537 39T366 -7Q265 -7 194 39ZM429 87T476 121T548 215T573 353Q573
430 548 490T476 586T365 621Q301 621 254 586T182 490T157 353Q157 277 182 217T254 122T365 87Q429 87 476 121ZM325 916H409L544 766H444L368 850H364L288 766H190L325 916Z" />
<glyph unicode="&#xd5;" glyph-name="Otilde" horiz-adv-x="732" d="M265 -7T194 39T85 167T48 352Q48 455 85 537T194 667T366 715Q465 715 536 668T645 539T682 351Q682 247 645 166T537 39T366 -7Q265 -7 194 39ZM429 87T476 121T548 215T573 353Q573 430 548
490T476 586T365 621Q301 621 254 586T182 490T157 353Q157 277 182 217T254 122T365 87Q429 87 476 121ZM214 839T235 874T306 909Q326 909 342 902T380 880Q383 878 392 872T410 863T425 860Q442 860 449 874T455 909H513Q517 862 496 828T425 793Q405 793 390
800T351 821Q336 831 326 836T306 841Q288 841 281 827T276 792H217Q214 839 235 874Z" />
<glyph unicode="&#xd6;" glyph-name="Odieresis" horiz-adv-x="732" d="M265 -7T194 39T85 167T48 352Q48 455 85 537T194 667T366 715Q465 715 536 668T645 539T682 351Q682 247 645 166T537 39T366 -7Q265 -7 194 39ZM429 87T476 121T548 215T573 353Q573 430
548 490T476 586T365 621Q301 621 254 586T182 490T157 353Q157 277 182 217T254 122T365 87Q429 87 476 121ZM450 796T432 814T414 859Q414 886 432 904T477 922Q504 922 522 904T540 859Q540 833 522 815T477 796Q450 796 432 814ZM235 796T217 814T199 859Q199
886 217 904T262 922Q289 922 307 904T325 859Q325 833 307 815T262 796Q235 796 217 814Z" />
<glyph unicode="&#xd7;" glyph-name="multiply" horiz-adv-x="563" d="M393 138L282 249L171 138L107 201L218 312L107 423L171 487L282 376L392 486L456 423L346 313L457 202L393 138Z" />
<glyph unicode="&#xd8;" glyph-name="Oslash" horiz-adv-x="743" d="M639 575T663 505T687 351Q687 247 650 166T542 39T371 -7Q282 -7 214 30L167 -43H70L149 80Q102 128 78 198T53 352Q53 455 90 537T199 667T371 715Q462 715 530 675L574 743H671L594 623Q639
575 663 505ZM163 246T209 174L476 590Q431 621 371 621Q306 621 259 586T188 490T163 353Q163 246 209 174ZM435 87T482 121T553 215T578 353Q578 459 534 529L268 115Q313 87 371 87Q435 87 482 121Z" />
<glyph unicode="&#xd9;" glyph-name="Ugrave" horiz-adv-x="684" d="M210 -9T136 72T62 308V700H164V312Q164 227 200 159T343 90Q446 90 482 158T519 312V700H622V308Q622 153 548 72T343 -9Q210 -9 136 72ZM176 957H282L382 773H299L176 957Z" />
<glyph unicode="&#xda;" glyph-name="Uacute" horiz-adv-x="684" d="M210 -9T136 72T62 308V700H164V312Q164 227 200 159T343 90Q446 90 482 158T519 312V700H622V308Q622 153 548 72T343 -9Q210 -9 136 72ZM304 773L403 957H510L387 773H304Z" />
<glyph unicode="&#xdb;" glyph-name="Ucircumflex" horiz-adv-x="684" d="M210 -9T136 72T62 308V700H164V312Q164 227 200 159T343 90Q446 90 482 158T519 312V700H622V308Q622 153 548 72T343 -9Q210 -9 136 72ZM302 916H386L521 766H421L345 850H341L265 766H167L302
916Z" />
<glyph unicode="&#xdc;" glyph-name="Udieresis" horiz-adv-x="684" d="M210 -9T136 72T62 308V700H164V312Q164 227 200 159T343 90Q446 90 482 158T519 312V700H622V308Q622 153 548 72T343 -9Q210 -9 136 72ZM427 796T409 814T391 859Q391 886 409 904T454
922Q481 922 499 904T517 859Q517 833 499 815T454 796Q427 796 409 814ZM212 796T194 814T176 859Q176 886 194 904T239 922Q266 922 284 904T302 859Q302 833 284 815T239 796Q212 796 194 814Z" />
<glyph unicode="&#xdd;" glyph-name="Yacute" horiz-adv-x="624" d="M260 -1V250L31 700H142L308 361H315L480 700H591L363 250V0L260 -1ZM272 773L371 957H478L355 773H272Z" />
<glyph unicode="&#xde;" glyph-name="Thorn" horiz-adv-x="596" d="M399 582T454 548T534 461T559 349Q559 289 534 237T454 152T314 118H170V0H69V700H170V582H314Q399 582 454 548ZM367 206T413 238T459 349Q459 426 413 458T300 490H170V206H300Q367 206 413 238Z" />
<glyph unicode="&#xdf;" glyph-name="germandbls" horiz-adv-x="578" d="M215 632T194 590T172 493V-2H69V484Q69 581 117 649T286 717Q364 717 414 690T486 619T509 527Q509 473 486 439T436 390T399 375V369Q409 369 440 353T498 298T526 198Q526 141 499 94T421
19T301 -9Q266 -9 239 -3V84Q257 80 285 80Q353 80 392 114T431 210Q431 278 387 306T282 334H226V412H285Q339 412 376 438T413 522Q413 576 380 604T292 632Q215 632 194 590Z" />
<glyph unicode="&#xe0;" glyph-name="agrave" horiz-adv-x="619" d="M192 -7T143 28T69 125T43 266Q43 346 69 408T144 505T263 541Q332 541 373 509T435 435H442V527H546V0H442V102H435Q413 58 371 26T260 -7Q192 -7 143 28ZM366 79T403 133T441 267Q441 346
404 400T295 454Q223 454 186 400T149 268Q149 188 185 134T295 79Q366 79 403 133ZM140 784H246L346 600H263L140 784Z" />
<glyph unicode="&#xe1;" glyph-name="aacute" horiz-adv-x="619" d="M192 -7T143 28T69 125T43 266Q43 346 69 408T144 505T263 541Q332 541 373 509T435 435H442V527H546V0H442V102H435Q413 58 371 26T260 -7Q192 -7 143 28ZM366 79T403 133T441 267Q441 346
404 400T295 454Q223 454 186 400T149 268Q149 188 185 134T295 79Q366 79 403 133ZM267 600L366 784H473L350 600H267Z" />
<glyph unicode="&#xe2;" glyph-name="acircumflex" horiz-adv-x="619" d="M192 -7T143 28T69 125T43 266Q43 346 69 408T144 505T263 541Q332 541 373 509T435 435H442V527H546V0H442V102H435Q413 58 371 26T260 -7Q192 -7 143 28ZM366 79T403 133T441 267Q441
346 404 400T295 454Q223 454 186 400T149 268Q149 188 185 134T295 79Q366 79 403 133ZM265 743H349L484 593H384L308 677H304L228 593H130L265 743Z" />
<glyph unicode="&#xe3;" glyph-name="atilde" horiz-adv-x="619" d="M192 -7T143 28T69 125T43 266Q43 346 69 408T144 505T263 541Q332 541 373 509T435 435H442V527H546V0H442V102H435Q413 58 371 26T260 -7Q192 -7 143 28ZM366 79T403 133T441 267Q441 346
404 400T295 454Q223 454 186 400T149 268Q149 188 185 134T295 79Q366 79 403 133ZM155 666T176 701T247 736Q267 736 283 729T321 707Q324 705 333 699T351 690T366 687Q383 687 390 701T396 736H454Q458 689 437 655T366 620Q346 620 331 627T292 648Q277 658
267 663T247 668Q229 668 222 654T217 619H158Q155 666 176 701Z" />
<glyph unicode="&#xe4;" glyph-name="adieresis" horiz-adv-x="619" d="M192 -7T143 28T69 125T43 266Q43 346 69 408T144 505T263 541Q332 541 373 509T435 435H442V527H546V0H442V102H435Q413 58 371 26T260 -7Q192 -7 143 28ZM366 79T403 133T441 267Q441 346
404 400T295 454Q223 454 186 400T149 268Q149 188 185 134T295 79Q366 79 403 133ZM390 623T372 641T354 686Q354 713 372 731T417 749Q444 749 462 731T480 686Q480 660 462 642T417 623Q390 623 372 641ZM175 623T157 641T139 686Q139 713 157 731T202 749Q229
749 247 731T265 686Q265 660 247 642T202 623Q175 623 157 641Z" />
<glyph unicode="&#xe5;" glyph-name="aring" horiz-adv-x="619" d="M192 -7T143 28T69 125T43 266Q43 346 69 408T144 505T263 541Q332 541 373 509T435 435H442V527H546V0H442V102H435Q413 58 371 26T260 -7Q192 -7 143 28ZM366 79T403 133T441 267Q441 346 404
400T295 454Q223 454 186 400T149 268Q149 188 185 134T295 79Q366 79 403 133ZM269 608T242 635T215 700Q215 738 241 764T306 791Q344 791 371 764T398 700Q398 663 371 636T306 608Q269 608 242 635ZM325 655T338 668T351 700Q351 719 338 732T306 745Q287 745
274 732T261 700Q261 681 274 668T306 655Q325 655 338 668Z" />
<glyph unicode="&#xe6;" glyph-name="ae" horiz-adv-x="931" d="M148 -7T99 36T49 151Q49 236 115 269T276 303H396V340Q396 381 371 418T278 456Q226 456 196 431T159 367H61Q67 408 91 447T160 512T273 538Q340 538 385 511T452 430H457Q485 482 534 511T649
541Q736 541 788 496T862 389T883 266V237H500V229Q500 187 518 152T570 97T644 77Q691 77 725 100T775 164H877Q856 90 797 42T646 -7Q574 -7 522 25T442 113H436Q410 55 356 24T232 -7Q148 -7 99 36ZM782 303Q779 384 743 421T646 458Q581 458 543 416T501 303H782ZM298
71T330 89T378 135T395 196V237H280Q228 237 190 222T151 155Q151 115 178 93T254 71Q298 71 330 89Z" />
<glyph unicode="&#xe7;" glyph-name="ccedilla" horiz-adv-x="575" d="M356 79T389 112T432 199H533Q522 118 470 60T328 -7L313 -50H335Q383 -50 408 -75T433 -140Q433 -184 403 -215T314 -246Q281 -246 252 -235L253 -179Q285 -187 314 -187Q346 -187 362 -174T379
-139Q379 -116 363 -108T328 -99H243V-96L270 -7Q197 0 147 40T73 140T48 267Q48 338 75 400T159 502T298 541Q401 541 461 482T533 334H432Q423 388 390 421T299 455Q225 455 188 401T151 267Q151 187 188 133T299 79Q356 79 389 112Z" />
<glyph unicode="&#xe8;" glyph-name="egrave" horiz-adv-x="581" d="M214 -7T158 32T75 133T48 267Q48 338 75 400T158 502T297 541Q405 541 469 471T533 266V237H149V230Q149 190 167 155T218 99T294 77Q341 77 375 100T424 164H526Q506 90 447 42T296 -7Q214
-7 158 32ZM432 308Q428 389 392 425T295 462Q231 462 193 420T152 308H432ZM130 784H236L336 600H253L130 784Z" />
<glyph unicode="&#xe9;" glyph-name="eacute" horiz-adv-x="581" d="M214 -7T158 32T75 133T48 267Q48 338 75 400T158 502T297 541Q405 541 469 471T533 266V237H149V230Q149 190 167 155T218 99T294 77Q341 77 375 100T424 164H526Q506 90 447 42T296 -7Q214
-7 158 32ZM432 308Q428 389 392 425T295 462Q231 462 193 420T152 308H432ZM258 600L357 784H464L341 600H258Z" />
<glyph unicode="&#xea;" glyph-name="ecircumflex" horiz-adv-x="581" d="M214 -7T158 32T75 133T48 267Q48 338 75 400T158 502T297 541Q405 541 469 471T533 266V237H149V230Q149 190 167 155T218 99T294 77Q341 77 375 100T424 164H526Q506 90 447 42T296 -7Q214
-7 158 32ZM432 308Q428 389 392 425T295 462Q231 462 193 420T152 308H432ZM256 743H340L475 593H375L299 677H295L219 593H121L256 743Z" />
<glyph unicode="&#xeb;" glyph-name="edieresis" horiz-adv-x="581" d="M214 -7T158 32T75 133T48 267Q48 338 75 400T158 502T297 541Q405 541 469 471T533 266V237H149V230Q149 190 167 155T218 99T294 77Q341 77 375 100T424 164H526Q506 90 447 42T296 -7Q214
-7 158 32ZM432 308Q428 389 392 425T295 462Q231 462 193 420T152 308H432ZM381 623T363 641T345 686Q345 713 363 731T408 749Q435 749 453 731T471 686Q471 660 453 642T408 623Q381 623 363 641ZM166 623T148 641T130 686Q130 713 148 731T193 749Q220 749
238 731T256 686Q256 660 238 642T193 623Q166 623 148 641Z" />
<glyph unicode="&#xec;" glyph-name="igrave" horiz-adv-x="261" d="M79 527H182V0H79V527ZM-36 784H70L170 600H87L-36 784Z" />
<glyph unicode="&#xed;" glyph-name="iacute" horiz-adv-x="261" d="M79 527H182V0H79V527ZM92 600L191 784H298L175 600H92Z" />
<glyph unicode="&#xee;" glyph-name="icircumflex" horiz-adv-x="261" d="M79 527H182V0H79V527ZM90 743H174L309 593H209L133 677H129L53 593H-45L90 743Z" />
<glyph unicode="&#xef;" glyph-name="idieresis" horiz-adv-x="261" d="M79 527H182V0H79V527ZM215 623T197 641T179 686Q179 713 197 731T242 749Q269 749 287 731T305 686Q305 660 287 642T242 623Q215 623 197 641ZM0 623T-18 641T-36 686Q-36 713 -18 731T27
749Q54 749 72 731T90 686Q90 660 72 642T27 623Q0 623 -18 641Z" />
<glyph unicode="&#xf0;" glyph-name="eth" horiz-adv-x="612" d="M537 605T537 450V275Q537 201 510 137T425 33T285 -7Q202 -7 146 32T63 136T35 275Q35 348 61 408T137 505T255 541Q324 541 365 509T426 437H434V456Q434 579 371 647L280 595L250 648L320 688Q290
706 260 713T207 720V799Q247 800 302 787T406 738L497 791L528 738L455 696Q537 605 537 450ZM357 79T394 134T432 268Q432 347 395 401T286 455Q214 455 178 401T141 267Q141 188 177 134T286 79Q357 79 394 134Z" />
<glyph unicode="&#xf1;" glyph-name="ntilde" horiz-adv-x="608" d="M69 527H173V437H181Q200 481 243 511T349 541Q417 541 461 509T525 426T545 318V0H442V303Q442 375 406 413T309 451Q246 451 210 410T173 303V0H69V527ZM153 666T174 701T245 736Q265 736
281 729T319 707Q322 705 331 699T349 690T364 687Q381 687 388 701T394 736H452Q456 689 435 655T364 620Q344 620 329 627T290 648Q275 658 265 663T245 668Q227 668 220 654T215 619H156Q153 666 174 701Z" />
<glyph unicode="&#xf2;" glyph-name="ograve" horiz-adv-x="592" d="M215 -7T159 31T76 131T48 266Q48 339 75 401T159 502T296 541Q377 541 433 503T517 402T545 267Q545 195 517 133T433 32T296 -7Q215 -7 159 31ZM365 79T403 133T442 268Q442 349 404 402T296
455Q228 455 189 402T150 268Q150 187 188 133T296 79Q365 79 403 133ZM130 784H236L336 600H253L130 784Z" />
<glyph unicode="&#xf3;" glyph-name="oacute" horiz-adv-x="592" d="M215 -7T159 31T76 131T48 266Q48 339 75 401T159 502T296 541Q377 541 433 503T517 402T545 267Q545 195 517 133T433 32T296 -7Q215 -7 159 31ZM365 79T403 133T442 268Q442 349 404 402T296
455Q228 455 189 402T150 268Q150 187 188 133T296 79Q365 79 403 133ZM257 600L356 784H463L340 600H257Z" />
<glyph unicode="&#xf4;" glyph-name="ocircumflex" horiz-adv-x="592" d="M215 -7T159 31T76 131T48 266Q48 339 75 401T159 502T296 541Q377 541 433 503T517 402T545 267Q545 195 517 133T433 32T296 -7Q215 -7 159 31ZM365 79T403 133T442 268Q442 349 404
402T296 455Q228 455 189 402T150 268Q150 187 188 133T296 79Q365 79 403 133ZM255 743H339L474 593H374L298 677H294L218 593H120L255 743Z" />
<glyph unicode="&#xf5;" glyph-name="otilde" horiz-adv-x="592" d="M215 -7T159 31T76 131T48 266Q48 339 75 401T159 502T296 541Q377 541 433 503T517 402T545 267Q545 195 517 133T433 32T296 -7Q215 -7 159 31ZM365 79T403 133T442 268Q442 349 404 402T296
455Q228 455 189 402T150 268Q150 187 188 133T296 79Q365 79 403 133ZM145 666T166 701T237 736Q257 736 273 729T311 707Q314 705 323 699T341 690T356 687Q373 687 380 701T386 736H444Q448 689 427 655T356 620Q336 620 321 627T282 648Q267 658 257 663T237
668Q219 668 212 654T207 619H148Q145 666 166 701Z" />
<glyph unicode="&#xf6;" glyph-name="odieresis" horiz-adv-x="592" d="M215 -7T159 31T76 131T48 266Q48 339 75 401T159 502T296 541Q377 541 433 503T517 402T545 267Q545 195 517 133T433 32T296 -7Q215 -7 159 31ZM365 79T403 133T442 268Q442 349 404 402T296
455Q228 455 189 402T150 268Q150 187 188 133T296 79Q365 79 403 133ZM380 623T362 641T344 686Q344 713 362 731T407 749Q434 749 452 731T470 686Q470 660 452 642T407 623Q380 623 362 641ZM165 623T147 641T129 686Q129 713 147 731T192 749Q219 749 237 731T255
686Q255 660 237 642T192 623Q165 623 147 641Z" />
<glyph unicode="&#xf7;" glyph-name="divide" horiz-adv-x="600" d="M250 435T232 454T213 500Q213 527 231 545T277 564Q305 564 323 546T342 500Q342 473 324 454T277 435Q250 435 232 454ZM75 354H479V268H75V354ZM250 64T232 83T213 129Q213 156 231 175T277
194Q305 194 323 175T342 129Q342 102 324 83T277 64Q250 64 232 83Z" />
<glyph unicode="&#xf8;" glyph-name="oslash" horiz-adv-x="592" d="M499 448T522 391T545 268Q545 196 517 133T433 32T296 -7Q239 -7 191 14L161 -39H84L134 51Q92 89 70 146T48 267Q48 339 75 401T159 502T296 541Q351 541 397 522L431 582H508L455 486Q499
448 522 391ZM150 190T184 140L353 443Q328 455 296 455Q227 455 189 402T150 268Q150 190 184 140ZM365 80T403 134T442 268Q442 348 406 399L235 94Q263 80 296 80Q365 80 403 134Z" />
<glyph unicode="&#xf9;" glyph-name="ugrave" horiz-adv-x="598" d="M535 0H431V95H424Q404 51 362 21T260 -9Q192 -9 150 23T88 106T69 213V527H172V228Q172 158 207 119T300 80Q361 80 396 121T431 228V527H535V0ZM122 784H228L328 600H245L122 784Z" />
<glyph unicode="&#xfa;" glyph-name="uacute" horiz-adv-x="598" d="M535 0H431V95H424Q404 51 362 21T260 -9Q192 -9 150 23T88 106T69 213V527H172V228Q172 158 207 119T300 80Q361 80 396 121T431 228V527H535V0ZM250 600L349 784H456L333 600H250Z" />
<glyph unicode="&#xfb;" glyph-name="ucircumflex" horiz-adv-x="598" d="M535 0H431V95H424Q404 51 362 21T260 -9Q192 -9 150 23T88 106T69 213V527H172V228Q172 158 207 119T300 80Q361 80 396 121T431 228V527H535V0ZM248 743H332L467 593H367L291 677H287L211
593H113L248 743Z" />
<glyph unicode="&#xfc;" glyph-name="udieresis" horiz-adv-x="598" d="M535 0H431V95H424Q404 51 362 21T260 -9Q192 -9 150 23T88 106T69 213V527H172V228Q172 158 207 119T300 80Q361 80 396 121T431 228V527H535V0ZM373 623T355 641T337 686Q337 713 355 731T400
749Q427 749 445 731T463 686Q463 660 445 642T400 623Q373 623 355 641ZM158 623T140 641T122 686Q122 713 140 731T185 749Q212 749 230 731T248 686Q248 660 230 642T185 623Q158 623 140 641Z" />
<glyph unicode="&#xfd;" glyph-name="yacute" horiz-adv-x="540" d="M267 -112T252 -137T202 -186T109 -210Q79 -210 45 -202V-127Q69 -131 87 -131Q120 -131 140 -119T171 -88T198 -32L220 21L26 527H133L269 136H275L418 527H524L283 -74Q267 -112 252 -137ZM233
600L332 784H439L316 600H233Z" />
<glyph unicode="&#xfe;" glyph-name="thorn" horiz-adv-x="621" d="M285 -7T244 25T180 101H173V-236H68V750H173V436H180Q200 478 241 509T352 541Q421 541 470 506T545 408T571 266Q571 187 546 125T471 28T354 -7Q285 -7 244 25ZM392 79T428 133T465 267Q465
346 429 399T320 453Q249 453 212 399T174 266Q174 187 211 133T320 79Q392 79 428 133Z" />
<glyph unicode="&#xff;" glyph-name="ydieresis" horiz-adv-x="540" d="M267 -112T252 -137T202 -186T109 -210Q79 -210 45 -202V-127Q69 -131 87 -131Q120 -131 140 -119T171 -88T198 -32L220 21L26 527H133L269 136H275L418 527H524L283 -74Q267 -112 252 -137ZM356
623T338 641T320 686Q320 713 338 731T383 749Q410 749 428 731T446 686Q446 660 428 642T383 623Q356 623 338 641ZM141 623T123 641T105 686Q105 713 123 731T168 749Q195 749 213 731T231 686Q231 660 213 642T168 623Q141 623 123 641Z" />
<glyph unicode="&#x2013;" glyph-name="endash" horiz-adv-x="650" d="M111 354H539V270H111V354Z" />
<glyph unicode="&#x2014;" glyph-name="emdash" horiz-adv-x="766" d="M111 354H654V270H111V354Z" />
<glyph unicode="&#x2018;" glyph-name="quoteleft" horiz-adv-x="290" d="M189 730Q128 704 128 652Q128 626 137 620T166 613Q194 612 205 597T217 561Q217 533 200 515T149 497Q106 497 90 521T74 578V616Q74 679 105 716T189 768V730Z" />
<glyph unicode="&#x2019;" glyph-name="quoteright" horiz-adv-x="271" d="M111 503Q172 527 172 581Q172 607 163 613T134 620Q106 621 95 636T83 672Q83 700 100 717T151 735Q194 735 210 711T226 654V616Q226 553 195 516T111 464V503Z" />
<glyph unicode="&#x201a;" glyph-name="quotesinglbase" horiz-adv-x="301" d="M357 -129Q420 -102 420 -48Q420 -21 410 -15T380 -8Q352 -7 340 9T328 46Q328 75 346 93T398 112Q476 112 476 28V-11Q476 -77 444 -115T357 -168V-129Z" />
<glyph unicode="&#x201c;" glyph-name="quotedblleft" horiz-adv-x="511" d="M420 731Q358 706 358 653Q358 627 367 621T397 614Q425 613 436 598T448 562Q448 534 431 517T380 499Q337 499 321 523T305 580V618Q305 681 336 718T420 770V731ZM189 729Q128 703
128 650Q128 624 137 618T166 612Q194 611 205 596T217 560Q217 532 200 514T149 496Q106 496 90 520T74 577V615Q74 678 105 715T189 767V729Z" />
<glyph unicode="&#x201d;" glyph-name="quotedblright" horiz-adv-x="529" d="M105 514Q167 540 167 592Q167 619 158 625T128 631Q100 632 89 647T78 683Q78 711 95 729T145 747Q189 747 205 723T221 666V628Q221 565 190 528T105 476V514ZM335 513Q397 539 397
591Q397 618 388 624T358 630Q330 631 319 646T308 682Q308 710 325 728T376 746Q451 746 451 664V627Q451 563 420 527T335 475V513Z" />
<glyph unicode="&#x201e;" glyph-name="quotedblbase" horiz-adv-x="526" d="M102 -124Q164 -99 164 -46Q164 -20 155 -14T125 -7Q97 -6 86 9T74 45Q74 73 91 90T142 108Q185 108 201 84T217 27V-11Q217 -74 186 -111T102 -163V-124ZM332 -124Q393 -99 393 -46Q393
-20 384 -14T354 -7Q326 -6 315 9T304 45Q304 73 321 90T372 108Q415 108 431 84T447 27V-11Q447 -74 416 -111T332 -163V-124Z" />
<glyph unicode="&#x2022;" glyph-name="bullet" horiz-adv-x="423" d="M127 267T97 298T67 373Q67 417 97 448T172 479Q217 479 247 448T278 373Q278 329 248 298T172 267Q127 267 97 298Z" />
<glyph unicode="&#x2039;" glyph-name="guilsinglleft" horiz-adv-x="378" d="M341 102H237L38 314L237 527H341L146 314L341 102Z" />
<glyph unicode="&#x203a;" glyph-name="guilsinglright" horiz-adv-x="378" d="M38 527H142L341 314L142 102H38L233 314L38 527Z" />
</font>
</defs>
</svg>
