<?xml version="1.0" standalone="no"?>
<!DOCTYPE svg PUBLIC "-//W3C//DTD SVG 1.1//EN" "http://www.w3.org/Graphics/SVG/1.1/DTD/svg11.dtd">
<svg xmlns="http://www.w3.org/2000/svg">
<defs >
<font id="BeVietnam" horiz-adv-x="586" ><font-face
    font-family="Be Vietnam SemiBold"
    units-per-em="1000"
    panose-1="0 0 7 0 0 0 0 0 0 0"
    ascent="1196"
    descent="-265"
    alphabetic="0" />
<glyph unicode=" " glyph-name="space" horiz-adv-x="230" />
<glyph unicode="!" glyph-name="exclam" horiz-adv-x="267" d="M70 659V739H196V659L176 215H90L70 659ZM104 -9T85 11T66 59Q66 87 85 107T133 127Q162 127 182 107T202 59Q202 31 182 11T133 -9Q104 -9 85 11Z" />
<glyph unicode="&quot;" glyph-name="quotedbl" horiz-adv-x="530" d="M426 739Q362 713 362 660Q362 633 372 627T403 620Q434 619 446 602T458 563Q458 533 439 514T384 494Q338 494 321 519T303 582V621Q303 687 336 726T426 779V739ZM187 737Q124 712 124
659Q124 632 134 626T165 619Q196 618 208 601T220 562Q220 532 201 512T146 492Q100 492 83 518T65 580V620Q65 685 98 724T187 778V737Z" />
<glyph unicode="#" glyph-name="numbersign" horiz-adv-x="881" d="M645 428L609 258H756L737 174H590L553 0H453V12L488 174H331L294 0H194V12L229 174H78L97 258H247L283 428H131L150 514H302L342 700H442V688L405 514H562L602 700H701V688L664 514H809L790
428H645ZM543 428H386L350 258H506L543 428Z" />
<glyph unicode="$" glyph-name="dollar" horiz-adv-x="582" d="M554 138T524 92T441 20T320 -9V-85H275V-8Q201 -1 149 34T69 119T40 224H164Q168 184 194 147T275 99V300L254 304Q206 316 167 332T92 389T57 496Q57 582 116 635T275 694V766H320V694Q426 688
482 627T543 474H424Q421 513 397 549T320 594V398L361 389Q554 344 554 199Q554 138 524 92ZM275 408V595Q232 590 205 565T177 502Q177 465 205 440T265 410L275 408ZM371 99T403 125T436 193Q436 233 406 256T337 287L320 290V96Q371 99 403 125Z" />
<glyph unicode="%" glyph-name="percent" horiz-adv-x="807" d="M104 421T71 464T37 566Q37 625 70 667T172 710Q241 710 272 668T304 566Q304 506 273 464T172 421Q104 421 71 464ZM533 700H635L274 0H172L533 700ZM226 491T226 566Q226 641 174 641Q122 641
122 566Q122 491 174 491Q226 491 226 566ZM570 -10T537 33T503 135Q503 193 536 236T638 279Q707 279 738 237T770 135Q770 76 739 33T638 -10Q570 -10 537 33ZM671 60T681 81T692 135Q692 210 640 210Q588 210 588 135Q588 60 640 60Q671 60 681 81Z" />
<glyph unicode="&amp;" glyph-name="ampersand" horiz-adv-x="656" d="M668 0H531L438 105H432L426 95Q402 58 355 25T237 -8Q182 -8 138 14T69 77T44 175Q44 244 80 290T176 358L205 369V373L200 379Q170 412 149 448T128 536Q128 593 156 633T231 693T332 713Q388
713 436 692T515 627T545 522V499H421V515Q421 560 395 585T332 610Q297 610 272 589T247 529Q247 496 262 471T318 401L424 280L482 383H601L492 202L668 0ZM373 180L266 303L234 292Q199 279 180 253T160 190Q160 148 186 122T256 96Q300 96 325 118T368 171L373
180Z" />
<glyph unicode="&apos;" glyph-name="quotesingle" horiz-adv-x="297" d="M107 565Q171 591 171 644Q171 670 161 676T130 684Q99 685 87 702T75 741Q75 771 94 790T149 810Q195 810 212 784T230 722V682Q230 616 197 578T107 524V565Z" />
<glyph unicode="(" glyph-name="parenleft" horiz-adv-x="481" d="M293 -178T235 -103T142 75T107 293Q107 410 142 514T236 693T364 803L395 771Q351 731 312 655T249 484T225 293Q225 198 248 102T311 -70T395 -185L364 -217Q293 -178 235 -103Z" />
<glyph unicode=")" glyph-name="parenright" horiz-adv-x="530" d="M135 -185Q179 -146 218 -70T281 102T305 293Q305 388 282 483T219 655T135 771L167 803Q235 768 294 693T388 514T423 293Q423 178 389 76T296 -102T166 -217L135 -185Z" />
<glyph unicode="*" glyph-name="asterisk" horiz-adv-x="514" d="M227 536L118 463L83 524L197 583L83 643L118 705L227 632L222 765H291L285 629L396 705L430 643L317 583L430 524L396 463L285 536L291 402H222L227 536Z" />
<glyph unicode="+" glyph-name="plus" d="M499 260H344V106H240V260H86V364H240V518H344V364H499V260Z" />
<glyph unicode="," glyph-name="comma" horiz-adv-x="307" d="M105 -133Q172 -106 172 -51Q172 -24 161 -17T129 -9Q97 -8 85 9T72 50Q72 82 91 102T149 122Q197 122 215 95T233 30V-11Q233 -79 199 -119T105 -176V-133Z" />
<glyph unicode="-" glyph-name="hyphen" horiz-adv-x="596" d="M116 361H479V264H116V361Z" />
<glyph unicode="." glyph-name="period" horiz-adv-x="304" d="M122 -8T102 13T81 64Q81 94 101 115T152 136Q183 136 203 115T224 64Q224 34 203 13T152 -8Q122 -8 102 13Z" />
<glyph unicode="/" glyph-name="slash" horiz-adv-x="527" d="M386 793H501L153 -181H39L386 793Z" />
<glyph unicode="0" glyph-name="zero" horiz-adv-x="616" d="M174 -13T109 75T44 307V396Q44 539 109 626T307 714Q440 714 505 627T570 396V307Q570 164 505 76T307 -13Q174 -13 109 75ZM436 93T436 305V399Q436 609 307 609Q178 609 178 399V305Q178 93 307
93Q436 93 436 305Z" />
<glyph unicode="1" glyph-name="one" horiz-adv-x="514" d="M480 106V0H83V106H230V556H226L81 422V567L227 700H346V106H480Z" />
<glyph unicode="2" glyph-name="two" horiz-adv-x="591" d="M63 104L193 219Q195 221 227 247Q295 303 332 338T393 413T418 496Q418 544 389 577T301 610Q230 610 206 570T182 483V472H63Q63 542 90 597T171 683T300 715Q375 715 427 686T506 609T532 503Q532
441 505 390T441 304T338 210L224 111V106H538V0H64L63 104Z" />
<glyph unicode="3" glyph-name="three" horiz-adv-x="593" d="M185 -9T122 48T46 191H168Q180 148 213 124T300 99Q361 99 394 130T427 209Q427 261 391 290T301 319H237V412H300Q350 412 383 437T417 511Q417 559 385 588T298 617Q248 617 218 592T179 526H60Q73
607 130 662T299 717Q381 717 434 688T511 612T536 516Q536 465 513 431T462 381T427 365V359Q441 356 467 343T519 293T544 198Q544 142 518 95T437 20T301 -9Q185 -9 122 48Z" />
<glyph unicode="4" glyph-name="four" horiz-adv-x="610" d="M353 168L39 169V265L319 700H472V262H563V168H472V0H353V168ZM353 264V557L160 264H353Z" />
<glyph unicode="5" glyph-name="five" horiz-adv-x="600" d="M235 -6T182 22T98 96T59 196H181Q193 149 227 126T305 102Q365 102 398 141T432 243Q432 308 397 345T303 382Q221 382 189 307L68 311L87 700H509V589H186L176 400H181Q197 423 231 446T333 469Q434
469 493 408T553 243Q553 175 525 119T441 28T307 -6Q235 -6 182 22Z" />
<glyph unicode="6" glyph-name="six" horiz-adv-x="591" d="M233 -9T176 18T83 101T47 240Q47 322 78 391T165 542L269 700H389L181 390L185 388L200 404Q251 455 331 455Q394 455 442 426T517 346T544 228Q544 152 511 99T423 18T300 -9Q233 -9 176 18ZM358 89T392
130T427 227Q427 262 412 294T367 346T294 367Q232 367 198 326T163 228Q163 172 198 131T294 89Q358 89 392 130Z" />
<glyph unicode="7" glyph-name="seven" horiz-adv-x="521" d="M103 12L371 582V589H22V700H488V578L230 0H103V12Z" />
<glyph unicode="8" glyph-name="eight" horiz-adv-x="609" d="M222 -14T165 15T80 91T53 191Q53 241 73 277T120 333T169 359V364Q136 377 106 417T75 516Q75 566 100 611T177 684T309 713Q389 713 441 684T518 610T543 516Q543 474 527 442T489 391T449 364V359Q471
353 497 333T544 277T565 191Q565 138 538 91T454 15T309 -14Q222 -14 165 15ZM369 400T398 431T428 507Q428 550 398 582T309 614Q249 614 220 582T190 507Q190 462 219 431T309 400Q369 400 398 431ZM376 87T409 122T443 206Q443 255 410 290T309 326Q241 326
208 291T174 205Q174 156 207 122T308 87Q376 87 409 122Z" />
<glyph unicode="9" glyph-name="nine" horiz-adv-x="591" d="M410 314L406 316L391 300Q368 277 337 263T260 249Q197 249 149 278T74 359T47 477Q47 552 80 605T170 686T295 714Q359 714 416 687T508 604T544 466Q544 383 514 314T426 161L320 0H190L410 314ZM360
337T394 378T428 477Q428 533 394 574T297 616Q254 616 224 596T179 545T164 478Q164 442 179 410T224 358T298 337Q360 337 394 378Z" />
<glyph unicode=":" glyph-name="colon" horiz-adv-x="318" d="M374 247T354 268T333 319Q333 349 353 370T404 391Q435 391 455 370T476 319Q476 289 455 268T404 247Q374 247 354 268ZM118 382T98 403T77 454Q77 484 97 505T148 526Q179 526 199 505T220 454Q220
424 199 403T148 382Q118 382 98 403Z" />
<glyph unicode=";" glyph-name="semicolon" horiz-adv-x="340" d="M138 382T118 403T97 454Q97 484 117 505T168 526Q199 526 219 505T240 454Q240 424 219 403T168 382Q138 382 118 403ZM126 -132Q193 -105 193 -50Q193 -23 182 -16T150 -8Q118 -7 106 10T93
51Q93 83 112 103T170 123Q218 123 236 96T254 31V-10Q254 -78 220 -118T126 -175V-132Z" />
<glyph unicode="&lt;" glyph-name="less" horiz-adv-x="573" d="M474 453L221 328V324L474 198V93H461L100 284V367L461 558H474V453Z" />
<glyph unicode="=" glyph-name="equal" horiz-adv-x="710" d="M120 468H590V368H120V468ZM120 247H590V147H120V247Z" />
<glyph unicode="&gt;" glyph-name="greater" horiz-adv-x="573" d="M113 558L474 367V284L113 93H100V198L353 324V328L100 453V558H113Z" />
<glyph unicode="?" glyph-name="question" horiz-adv-x="576" d="M224 203Q224 250 248 285T321 366Q365 407 386 436T408 504Q408 550 377 576T295 603Q231 603 204 564T176 477V474H53V478Q53 549 83 603T168 686T295 715Q365 715 418 689T501 617T530 511Q530
469 515 436T478 378T422 323Q382 286 363 261T344 203V194H224V203ZM256 -9T237 11T217 59Q217 87 236 107T285 127Q314 127 333 107T353 59Q353 31 334 11T285 -9Q256 -9 237 11Z" />
<glyph unicode="@" glyph-name="at" horiz-adv-x="1011" d="M380 -165T279 -109T124 46T70 274Q70 406 126 505T283 657T509 711Q637 711 735 657T887 510T941 308Q941 229 914 176T841 96T740 69Q691 69 657 96T604 156H598Q586 118 553 92T465 66Q408 66 369
95T310 171T291 275Q291 331 310 378T367 454T460 483Q505 483 535 465T579 419H584V476H677V285Q677 216 690 177T753 137Q799 137 826 177T853 297Q853 393 812 466T692 581T507 623Q403 623 326 583T206 465T163 279Q163 169 207 89T334 -33T532 -76H755V-165H516Q380
-165 279 -109ZM536 146T560 182T584 274Q584 331 560 367T487 404Q440 404 416 368T391 275Q391 219 415 183T487 146Q536 146 560 182Z" />
<glyph unicode="A" glyph-name="A" horiz-adv-x="677" d="M467 183H212L150 0H27L283 700H397L653 0H530L467 183ZM435 277L341 549H336L244 277H435Z" />
<glyph unicode="B" glyph-name="B" horiz-adv-x="624" d="M63 700H354Q421 700 465 675T530 609T551 522Q551 460 518 422T443 373V367Q471 364 504 346T562 292T587 201Q587 151 565 105T494 29T373 -1H63V700ZM317 404Q366 404 401 428T436 505Q436 556 402
579T317 602H182V404H317ZM344 98Q397 98 434 123T472 207Q472 265 435 290T344 315H182V98H344Z" />
<glyph unicode="C" glyph-name="C" horiz-adv-x="703" d="M265 -8T193 40T84 171T46 353Q46 454 83 536T193 666T364 714Q485 714 563 645T665 463H547Q531 527 483 567T366 608Q271 608 222 539T173 354Q173 239 222 169T366 99Q432 99 478 136T542 232H660Q635
125 558 59T364 -8Q265 -8 193 40Z" />
<glyph unicode="D" glyph-name="D" horiz-adv-x="682" d="M63 701H330Q423 701 494 659T604 538T643 351Q643 242 604 163T493 43T328 1H63V701ZM307 110Q402 110 458 168T514 352Q514 476 458 534T307 593H181V110H307Z" />
<glyph unicode="E" glyph-name="E" horiz-adv-x="568" d="M185 593V404H470V308H185V107H516V0H64V700H516V593H185Z" />
<glyph unicode="F" glyph-name="F" horiz-adv-x="513" d="M186 593V404H463V309H186V0H64V700H500V593H186Z" />
<glyph unicode="G" glyph-name="G" horiz-adv-x="716" d="M250 -8T182 43T80 177T47 351Q47 445 81 528T186 662T362 714Q480 714 554 649T659 483H531Q514 541 472 574T363 607Q271 607 221 537T170 349Q170 227 222 159T368 91Q450 91 495 140T543 264V284H380V373H660V0H568V108H560Q542
72 496 32T350 -8Q250 -8 182 43Z" />
<glyph unicode="H" glyph-name="H" horiz-adv-x="679" d="M616 700V0H494V304H184V0H63V700H184V400H494V700H616Z" />
<glyph unicode="I" glyph-name="I" horiz-adv-x="260" d="M69 700H191V0H69V700Z" />
<glyph unicode="J" glyph-name="J" horiz-adv-x="360" d="M77 -3T45 5V92Q61 88 90 88Q125 88 141 100T162 131T166 179V700H285L286 145Q286 -3 122 -3Q77 -3 45 5Z" />
<glyph unicode="K" glyph-name="K" horiz-adv-x="643" d="M62 700H182V407H187L443 700H584L320 401L595 0H457L245 317L182 248V0H62V700Z" />
<glyph unicode="L" glyph-name="L" horiz-adv-x="532" d="M496 107V0H64L63 700H185L184 107H496Z" />
<glyph unicode="M" glyph-name="M" horiz-adv-x="834" d="M63 700H243L415 234H418L591 700H771V0H652V524H647L457 0H377L187 524H182V0H63V700Z" />
<glyph unicode="N" glyph-name="N" horiz-adv-x="704" d="M63 700H203L518 189H521V700H641V-1H501L187 499H183V-1H63V700Z" />
<glyph unicode="O" glyph-name="O" horiz-adv-x="729" d="M262 -8T190 39T81 167T44 351Q44 453 81 535T190 666T364 714Q464 714 536 666T645 536T682 351Q682 249 645 168T536 39T364 -8Q262 -8 190 39ZM453 102T503 172T553 353Q553 424 531 481T467 571T364
605Q304 605 261 572T196 481T173 352Q173 281 195 225T260 135T364 102Q453 102 503 172Z" />
<glyph unicode="P" glyph-name="P" horiz-adv-x="585" d="M399 700T455 666T537 578T564 463Q564 402 538 349T456 262T315 229H182V0H63V700H315Q399 700 455 666ZM360 330T403 360T446 463Q446 534 404 563T297 593H182V330H297Q360 330 403 360Z" />
<glyph unicode="Q" glyph-name="Q" horiz-adv-x="725" d="M682 263T655 190T574 68L663 -48H554L502 20Q440 -8 364 -8Q262 -8 190 39T81 167T44 351Q44 453 81 535T190 666T364 714Q464 714 536 666T645 536T682 351Q682 263 655 190ZM400 102T430 114L307 274H416L499
166Q525 201 539 248T553 353Q553 424 531 481T467 571T364 605Q304 605 261 572T196 481T173 352Q173 281 195 225T260 135T364 102Q400 102 430 114Z" />
<glyph unicode="R" glyph-name="R" horiz-adv-x="607" d="M287 262H184V0H63V700H315Q399 700 455 669T537 587T564 479Q564 409 525 353T408 274L574 0H446L287 262ZM184 362H297Q360 362 403 389T446 479Q446 542 404 567T297 593H184V362Z" />
<glyph unicode="S" glyph-name="S" horiz-adv-x="602" d="M226 -9T167 24T77 111T46 223V229H179V223Q179 195 193 167T236 119T311 99Q365 99 400 127T435 202Q435 242 408 266T339 298L248 316Q183 330 124 371T64 511Q64 573 94 619T178 689T302 714Q381 714
437 683T523 603T552 500V496H419V499Q419 523 408 549T369 593T297 611Q246 611 216 583T186 512Q186 473 213 450T283 418L370 400Q447 384 504 340T562 205Q562 142 530 94T440 18T309 -9Q226 -9 167 24Z" />
<glyph unicode="T" glyph-name="T" horiz-adv-x="591" d="M551 593H356V0H235V593H40V700H551V593Z" />
<glyph unicode="U" glyph-name="U" horiz-adv-x="684" d="M212 -10T135 69T58 307V700H179V314Q179 230 213 168T343 106Q436 106 471 168T506 314V700H625V307Q625 149 549 70T343 -10Q212 -10 135 69Z" />
<glyph unicode="V" glyph-name="V" horiz-adv-x="649" d="M12 700H133L322 127H328L516 700H638L404 -1H245L12 700Z" />
<glyph unicode="W" glyph-name="W" horiz-adv-x="995" d="M12 700H134L266 155H272L444 700H551L722 155H728L861 700H983L800 -1H651L500 484H494L344 -1H195L12 700Z" />
<glyph unicode="X" glyph-name="X" horiz-adv-x="669" d="M261 350L32 700H165L333 435H339L507 700H641L411 350L641 0H507L339 265H333L165 0H31L261 350Z" />
<glyph unicode="Y" glyph-name="Y" horiz-adv-x="634" d="M257 0V246L28 700H156L315 373H321L478 700H607L378 246V0H257Z" />
<glyph unicode="Z" glyph-name="Z" horiz-adv-x="621" d="M48 111L417 588V590H48V700H562V590L192 113V111H562V0H48V111Z" />
<glyph unicode="[" glyph-name="bracketleft" horiz-adv-x="463" d="M178 728V-97H388V-193H82V824H388V728H178Z" />
<glyph unicode="\" glyph-name="backslash" horiz-adv-x="527" d="M374 -181L27 793H141L489 -181H374Z" />
<glyph unicode="]" glyph-name="bracketright" horiz-adv-x="455" d="M373 -193H67V-97H277V728H67V824H373V-193Z" />
<glyph unicode="^" glyph-name="asciicircum" horiz-adv-x="421" d="M18 577L135 760H279L396 577V565H288L208 693H204L126 565H18V577Z" />
<glyph unicode="_" glyph-name="underscore" horiz-adv-x="704" d="M107 97H596V0H107V97Z" />
<glyph unicode="`" glyph-name="grave" horiz-adv-x="282" d="M29 808H152L251 618L155 617L29 808Z" />
<glyph unicode="a" glyph-name="a" horiz-adv-x="618" d="M152 -8T96 68T40 266Q40 390 97 465T255 541Q324 541 363 510T420 440H428V528H550V0H428V97H420Q401 56 361 24T252 -8Q152 -8 96 68ZM360 92T393 143T427 267Q427 340 394 390T295 441Q228 441 196
391T163 267Q163 194 196 143T295 92Q360 92 393 143Z" />
<glyph unicode="b" glyph-name="b" horiz-adv-x="615" d="M292 -8T252 24T192 97H184V0H63V751H184V440H192Q209 478 249 509T358 541Q461 541 517 466T573 266Q573 144 517 68T360 -8Q292 -8 252 24ZM384 90T417 141T450 266Q450 339 417 389T317 440Q252 440
219 390T185 266Q185 193 218 142T317 90Q384 90 417 141Z" />
<glyph unicode="c" glyph-name="c" horiz-adv-x="574" d="M212 -8T156 31T72 132T44 267Q44 338 71 400T155 502T296 541Q401 541 461 481T534 331H416Q409 380 379 410T297 441Q230 441 197 391T164 267Q164 192 197 142T297 91Q348 91 378 122T416 202H534Q522
112 462 52T296 -8Q212 -8 156 31Z" />
<glyph unicode="d" glyph-name="d" horiz-adv-x="615" d="M188 -8T140 27T67 124T42 266Q42 390 98 465T257 541Q326 541 366 510T423 440H431V751H553V0H431V97H423Q404 57 364 25T255 -8Q188 -8 140 27ZM363 90T396 141T430 266Q430 339 397 389T298 440Q232
440 199 390T166 266Q166 192 199 141T298 90Q363 90 396 141Z" />
<glyph unicode="e" glyph-name="e" horiz-adv-x="578" d="M212 -8T156 31T72 132T44 266Q44 338 71 400T155 502T295 541Q405 541 469 470T534 265V232H162V224Q162 189 178 158T224 109T292 90Q335 90 365 110T410 166H529Q508 90 448 41T294 -8Q212 -8 156 31ZM417
312Q415 384 382 417T294 451Q236 451 202 414T165 312H417Z" />
<glyph unicode="f" glyph-name="f" horiz-adv-x="384" d="M268 653T253 640T235 610T231 563V528H351V433H231V0H110V433H41V528H110V586Q110 739 268 739Q291 739 316 736T351 729V649Q327 653 300 653Q268 653 253 640Z" />
<glyph unicode="g" glyph-name="g" horiz-adv-x="617" d="M258 -218T219 -203V-105Q229 -108 252 -111T296 -115Q369 -115 401 -74T433 31V109H425Q406 69 364 38T257 6Q192 6 144 39T70 133T44 273Q44 353 70 414T144 508T257 542Q324 542 366 509T425 435H433V527H554V31Q554
-22 535 -78T461 -176T312 -218Q258 -218 219 -203ZM365 106T398 156T432 275Q432 342 399 392T301 442Q236 442 203 393T169 275Q169 206 202 156T301 106Q365 106 398 156Z" />
<glyph unicode="h" glyph-name="h" horiz-adv-x="605" d="M63 744H185V442H192Q211 483 252 512T354 541Q456 541 501 475T546 322V0H425V303Q425 368 394 403T305 439Q251 439 218 402T185 303V0H63V744Z" />
<glyph unicode="i" glyph-name="i" horiz-adv-x="273" d="M76 528H197V0H76V528ZM105 621T85 641T65 691Q65 721 85 741T135 761Q165 761 185 741T205 691Q205 662 185 642T135 621Q105 621 85 641Z" />
<glyph unicode="j" glyph-name="j" horiz-adv-x="273" d="M113 621T93 641T73 691Q73 720 93 740T143 761Q173 761 193 741T214 691Q214 662 194 642T143 621Q113 621 93 641ZM-4 -224T-42 -214V-130Q-20 -134 3 -134Q37 -134 53 -121T74 -90T78 -42V539H199V-76Q199
-131 168 -177T39 -224Q-4 -224 -42 -214Z" />
<glyph unicode="k" glyph-name="k" horiz-adv-x="546" d="M69 744H190V329H195L368 528H504L299 288L510 0H375L196 255H190V0H69V744Z" />
<glyph unicode="l" glyph-name="l" horiz-adv-x="332" d="M152 -4T119 17T78 71T69 155V750H190V178Q190 141 193 123T213 95T264 84Q277 84 295 86V2Q263 -4 221 -4Q152 -4 119 17Z" />
<glyph unicode="m" glyph-name="m" horiz-adv-x="933" d="M63 528H184V439H191Q196 452 212 475T262 519T346 541Q400 541 436 516T488 464T509 424H516Q532 460 569 500T688 541Q755 541 796 507T856 422T874 322V0H753V310Q753 372 722 403T643 435Q596 435
563 403T529 310V0H408V310Q408 372 377 403T298 435Q251 435 218 403T184 310V0H63V528Z" />
<glyph unicode="n" glyph-name="n" horiz-adv-x="605" d="M63 528H185V442H192Q211 483 252 512T354 541Q456 541 501 475T546 322V0H425V303Q425 368 394 403T307 439Q248 439 217 401T185 303V0H63V528Z" />
<glyph unicode="o" glyph-name="o" horiz-adv-x="590" d="M213 -8T157 30T72 130T44 266Q44 339 72 401T156 502T295 540Q377 540 433 502T517 402T545 267Q545 194 518 131T434 30T295 -8Q213 -8 157 30ZM358 92T392 142T426 267Q426 342 392 391T295 441Q231
441 198 392T164 267Q164 192 198 142T295 92Q358 92 392 142Z" />
<glyph unicode="p" glyph-name="p" horiz-adv-x="621" d="M292 -8T252 24T192 97H184V-206H63V528H184V440H192Q209 478 249 509T358 541Q461 541 517 466T573 266Q573 144 517 68T360 -8Q292 -8 252 24ZM384 90T417 141T450 266Q450 339 417 389T317 440Q252
440 219 390T185 266Q185 193 218 142T317 90Q384 90 417 141Z" />
<glyph unicode="q" glyph-name="q" horiz-adv-x="621" d="M160 -8T104 68T48 266Q48 390 104 465T263 541Q332 541 372 510T429 440H437V528H558V-206H437V97H429Q410 57 370 25T261 -8Q160 -8 104 68ZM369 90T402 141T436 266Q436 339 403 389T304 440Q238 440
205 390T171 266Q171 193 204 142T304 90Q369 90 402 141Z" />
<glyph unicode="r" glyph-name="r" horiz-adv-x="376" d="M64 528H184V444H191Q204 479 238 503T327 528Q346 528 366 523L361 410Q346 415 335 416T307 418Q246 418 215 385T184 275V0H64V528Z" />
<glyph unicode="s" glyph-name="s" horiz-adv-x="495" d="M188 -8T140 17T67 82T42 168V174H161V168Q161 137 186 112T257 87Q295 87 319 105T343 155Q343 183 323 199T272 219L209 231Q148 241 102 276T55 383Q55 457 109 499T248 541Q310 541 355 518T424 458T448
378V374H329V377Q329 404 309 428T244 452Q207 452 185 434T163 385Q163 359 183 343T235 321L304 309Q369 296 413 260T457 157Q457 108 431 71T358 13T254 -8Q188 -8 140 17Z" />
<glyph unicode="t" glyph-name="t" horiz-adv-x="412" d="M242 433V174Q242 138 245 121T265 94T316 84Q334 84 362 89V4Q356 2 328 -1T273 -4Q204 -4 171 16T130 67T121 148V433H29V528H121V700H242V528H362V433H242Z" />
<glyph unicode="u" glyph-name="u" horiz-adv-x="595" d="M536 0H414V89H408Q389 48 349 19T250 -10Q181 -10 139 23T80 107T63 210V528H184V229Q184 165 214 129T297 93Q354 93 384 131T414 229V528H536V0Z" />
<glyph unicode="v" glyph-name="v" horiz-adv-x="555" d="M23 528H139L275 124H281L416 528H532L350 0H204L23 528Z" />
<glyph unicode="w" glyph-name="w" horiz-adv-x="821" d="M24 528H138L237 131H242L357 528H464L582 131H587L684 528H797L659 0H511L415 340H408L313 0H165L24 528Z" />
<glyph unicode="x" glyph-name="x" horiz-adv-x="568" d="M194 264L29 528H162L274 336H278L389 528H522L355 264L522 0H389L278 192H274L163 0H29L194 264Z" />
<glyph unicode="y" glyph-name="y" horiz-adv-x="542" d="M281 -111T266 -138T212 -191T112 -217Q86 -217 67 -213T43 -207V-121Q59 -125 86 -125Q119 -125 139 -114T171 -84T196 -31L215 17L24 528H147L272 150H278L409 528H533L295 -74Q281 -111 266 -138Z" />
<glyph unicode="z" glyph-name="z" horiz-adv-x="497" d="M51 96L324 430V433H64V529H454V433L182 99V97H454V0H51V96Z" />
<glyph unicode="{" glyph-name="braceleft" horiz-adv-x="450" d="M245 -235T205 -196T164 -57V178Q164 227 160 244T141 268T84 274V334Q125 334 140 339T160 362T164 429V664Q164 764 204 803T324 843H395V758H334Q297 758 284 742T270 683V458Q270 385 257
350T206 309V298Q243 292 256 257T270 149V-76Q270 -118 283 -134T334 -151H395V-235H324Q245 -235 205 -196Z" />
<glyph unicode="|" glyph-name="bar" horiz-adv-x="300" d="M100 950H200V-248H100V950Z" />
<glyph unicode="}" glyph-name="braceright" horiz-adv-x="459" d="M97 -235V-151H158Q195 -151 208 -135T222 -76V149Q222 222 235 257T286 298V309Q249 315 236 350T222 458V683Q222 726 209 742T158 758H97V843H168Q247 843 287 804T328 664V429Q328 380 332
363T351 340T408 334V274Q367 274 352 268T332 245T328 178V-57Q328 -157 288 -196T168 -235H97Z" />
<glyph unicode="~" glyph-name="asciitilde" horiz-adv-x="589" d="M103 367T131 404T221 442Q245 442 265 436T308 418Q329 409 341 405T369 400Q394 400 405 413T418 443H488Q487 395 460 358T370 320Q346 320 327 326T282 344Q263 353 250 358T221 363Q196
363 185 350T172 319H102Q103 367 131 404Z" />
<glyph unicode="&#xa0;" glyph-name="uni00A0" horiz-adv-x="230" />
<glyph unicode="&#xa1;" glyph-name="exclamdown" horiz-adv-x="257" d="M162 498T182 478T202 430Q202 402 182 382T133 362Q104 362 85 382T66 430Q66 458 85 478T133 498Q162 498 182 478ZM176 274L196 -170V-250H70V-170L90 274H176Z" />
<glyph unicode="&#xa2;" glyph-name="cent" horiz-adv-x="600" d="M355 96T382 126T416 202H534Q522 115 465 56T310 -8V-68H268V-7Q194 0 144 40T69 139T44 267Q44 334 68 394T143 493T268 540V608H310V541Q408 537 465 478T534 331H416Q410 377 383 406T310
440V92Q355 96 382 126ZM164 201T189 153T268 94V438Q215 427 190 380T164 267Q164 201 189 153Z" />
<glyph unicode="&#xa3;" glyph-name="sterling" horiz-adv-x="613" d="M564 102V0H42V103H67Q94 103 122 116T169 157T189 225Q189 245 184 265H51V334H149L131 359Q99 403 83 437T67 517Q67 567 90 612T167 686T304 715Q411 715 465 672T535 583T551 506V492H419V503Q419
525 410 550T375 595T307 615Q255 615 228 586T200 518Q200 492 211 470T245 415Q279 366 292 334H436V265H306V259Q306 208 286 175T241 127T199 107V102H564Z" />
<glyph unicode="&#xa4;" glyph-name="currency" horiz-adv-x="614" d="M433 156Q376 118 307 118Q238 118 181 156L117 86L53 145L117 215Q71 278 71 354Q71 434 120 496L55 567L120 625L185 555Q241 590 307 590Q373 590 429 555L494 625L559 567L494 496Q543
434 543 354Q543 316 531 281T497 215L562 145L497 86L433 156ZM345 209T379 229T432 282T452 354Q452 393 433 426T380 478T307 498Q268 498 235 479T183 427T163 354Q163 315 182 282T234 229T305 209Q345 209 379 229Z" />
<glyph unicode="&#xa5;" glyph-name="yen" horiz-adv-x="641" d="M603 691L400 289H508V224H378V172H508V107H378V0H257V107H127V172H257V224H127V289H235L32 691V700H156L315 373H321L478 700H603V691Z" />
<glyph unicode="&#xa6;" glyph-name="brokenbar" horiz-adv-x="300" d="M100 950H200V416H100V950ZM100 252H200V-248H100V252Z" />
<glyph unicode="&#xa7;" glyph-name="section" horiz-adv-x="555" d="M212 -9T162 16T86 80T56 163H178Q180 136 204 111T279 86Q317 86 341 101T365 143Q365 167 345 181T296 201L231 214Q164 227 106 264T47 373Q47 446 120 476V479Q77 510 77 569Q77 637 130
675T271 714Q368 714 422 668T483 556H362Q348 626 271 626Q232 626 210 610T188 568Q188 545 209 530T262 510L333 497Q408 484 461 446T514 341Q514 305 496 278T443 233V231Q462 218 473 196T484 145Q484 75 428 33T281 -9Q212 -9 162 16ZM367 286T380 302T394
340Q394 366 369 384T305 408L222 424Q195 426 177 411T159 372Q159 346 180 331T237 309L347 287Q367 286 380 302Z" />
<glyph unicode="&#xa8;" glyph-name="dieresis" horiz-adv-x="435" d="M310 621T290 641T270 691Q270 721 290 741T340 761Q370 761 390 741T410 691Q410 662 390 642T340 621Q310 621 290 641ZM75 621T55 641T35 691Q35 721 55 741T105 761Q135 761 155 741T175
691Q175 662 155 642T105 621Q75 621 55 641Z" />
<glyph unicode="&#xa9;" glyph-name="copyright" horiz-adv-x="807" d="M284 -13T202 42T81 181T42 349Q42 434 80 517T201 655T407 710Q532 710 612 655T729 516T765 349Q765 268 729 185T612 44T407 -13Q284 -13 202 42ZM505 63T569 108T661 219T690 350Q690
417 662 482T570 591T407 635Q310 635 245 592T149 483T118 350Q118 284 148 218T244 107T407 63Q505 63 569 108ZM346 145T301 173T232 248T208 348Q208 402 232 449T301 524T408 553Q482 553 532 513T601 409L528 397Q516 437 485 460T409 484Q351 484 317 446T283
349Q283 291 317 253T409 215Q454 215 485 238T528 302L601 289Q584 227 534 186T408 145Q346 145 301 173Z" />
<glyph unicode="&#xaa;" glyph-name="ordfeminine" horiz-adv-x="164" d="M35 382T21 402T6 456Q6 491 20 511T61 531Q78 531 87 524T99 509H101V529H152V385H101V405H99Q98 404 91 393T61 382Q35 382 21 402ZM92 421T98 432T104 456Q104 470 98 481T79 492Q66
492 60 481T54 457Q54 443 60 432T79 421Q92 421 98 432Z" />
<glyph unicode="&#xab;" glyph-name="guillemotleft" horiz-adv-x="679" d="M353 98H236L38 313L236 528H353L161 312L353 98ZM642 98H525L326 313L525 528H642L450 312L642 98Z" />
<glyph unicode="&#xac;" glyph-name="logicalnot" horiz-adv-x="655" d="M575 264H480V433H80V530H575V264Z" />
<glyph unicode="&#xad;" glyph-name="uni00AD" horiz-adv-x="600" d="M116 361H479V264H116V361Z" />
<glyph unicode="&#xae;" glyph-name="registered" horiz-adv-x="340" d="M128 450T100 469T59 517T45 575Q45 604 58 633T100 681T171 700Q214 700 242 681T282 633T295 575Q295 547 283 518T242 470T171 450Q128 450 100 469ZM218 483T240 512T263 576Q263 610
241 638T171 667Q125 667 102 639T78 576Q78 541 101 512T171 483Q218 483 240 512ZM127 637H183Q202 637 211 626T220 600Q220 588 215 578T199 564L223 517V515H193L170 561H154V515H127V637ZM175 581Q182 581 187 585T193 597Q193 613 175 613H154V581H175Z"
/>
<glyph unicode="&#xaf;" glyph-name="overscore" horiz-adv-x="373" d="M30 703H343V645H30V703Z" />
<glyph unicode="&#xb0;" glyph-name="degree" horiz-adv-x="317" d="M117 665T86 696T55 770Q55 813 86 844T160 875Q203 875 233 844T264 770Q264 727 234 696T160 665Q117 665 86 696ZM179 722T193 736T207 770Q207 790 194 803T160 817Q140 817 126 804T112
770Q112 750 126 736T160 722Q179 722 193 736Z" />
<glyph unicode="&#xb1;" glyph-name="plusminus" horiz-adv-x="604" d="M254 320H100V425H254V579H358V425H512V320H358V166H254V320ZM513 79L512 0H100V79H513Z" />
<glyph unicode="&#xb2;" glyph-name="uni00B2" horiz-adv-x="306" d="M24 448L86 504Q93 510 131 540T188 597T208 649Q208 670 195 685T154 700Q120 700 108 679T96 631H26Q26 692 61 727T155 763Q212 763 244 731T277 651Q277 607 255 577T191 511L175 497L122
450V447H282V382H24V448Z" />
<glyph unicode="&#xb3;" glyph-name="uni00B3" horiz-adv-x="323" d="M101 376T65 408T24 490H101Q106 469 123 457T164 445Q193 445 209 460T225 496Q225 519 208 533T165 547H131V605H162Q186 605 203 617T220 653Q220 675 204 689T163 703Q137 703 123 691T106
658H31Q40 704 71 734T164 764Q230 764 262 731T294 655Q294 629 282 611T255 584T237 575V573Q251 567 262 561T286 537T299 490Q299 464 285 438T241 394T164 376Q101 376 65 408Z" />
<glyph unicode="&#xb4;" glyph-name="acute" horiz-adv-x="282" d="M29 618L129 808H251L125 617L29 618Z" />
<glyph unicode="&#xb5;" glyph-name="uni00B5" horiz-adv-x="656" d="M59 528H180V219Q180 169 196 130T273 91Q328 91 357 134T386 233V528H508V178Q508 142 511 124T531 95T584 84Q597 84 615 86V2Q581 -4 540 -4Q469 -4 437 20T395 92H387Q386 91 376 69T334
23T265 -5Q235 -7 213 -1T166 21L164 18Q175 3 177 -39T180 -214H59V528Z" />
<glyph unicode="&#xb6;" glyph-name="paragraph" horiz-adv-x="562" d="M499 0H423V595H354V0H278V325H215Q151 325 107 350T41 417T18 510Q18 562 41 605T108 674T215 700H499V0Z" />
<glyph unicode="&#xb7;" glyph-name="middot" horiz-adv-x="301" d="M120 292T100 313T79 364Q79 394 99 415T150 436Q181 436 201 415T222 364Q222 334 201 313T150 292Q120 292 100 313Z" />
<glyph unicode="&#xb8;" glyph-name="cedilla" horiz-adv-x="255" d="M133 -183T149 -171T165 -139Q165 -119 150 -111T118 -103H30V-99L58 0H122L106 -48H125Q174 -48 199 -75T225 -141Q225 -185 194 -217T103 -249Q84 -249 66 -245T38 -236L39 -175Q71 -183
103 -183Q133 -183 149 -171Z" />
<glyph unicode="&#xb9;" glyph-name="uni00B9" horiz-adv-x="274" d="M250 455V390H25V455H107V675H105L24 604V691L105 764H177V455H250Z" />
<glyph unicode="&#xba;" glyph-name="ordmasculine" horiz-adv-x="166" d="M48 382T30 404T12 458Q12 491 30 513T83 535Q118 535 136 513T154 459Q154 426 136 404T83 382Q48 382 30 404ZM97 419T104 430T111 459Q111 476 104 487T83 499Q70 499 63 488T56 459Q56
442 62 431T83 419Q97 419 104 430Z" />
<glyph unicode="&#xbb;" glyph-name="guillemotright" horiz-adv-x="679" d="M327 528H444L642 313L444 98H327L519 312L327 528ZM38 528H155L353 313L155 98H38L230 312L38 528Z" />
<glyph unicode="&#xbc;" glyph-name="onequarter" horiz-adv-x="831" d="M37 350V422H115V601H113L37 533V632L113 700H194V422H264V350H37ZM691 688L279 0H178V12L589 700H691V688ZM794 144V81H754V0H672V81L521 82V141L649 350H754V144H794ZM673 280L586 145H673V280Z" />
<glyph unicode="&#xbd;" glyph-name="onehalf" horiz-adv-x="872" d="M264 350H37V422H115V601H113L37 533V632L113 700H194V422H264V350ZM717 688L305 0H203V12L614 700H717V688ZM835 72V0H588V70L638 114Q678 142 699 158T737 196T754 243Q754 262 744 274T712
286Q666 286 666 229H591Q591 292 625 325T714 358Q769 358 800 328T831 251Q831 219 817 194T789 156T738 111L697 74V72H835Z" />
<glyph unicode="&#xbe;" glyph-name="threequarters" horiz-adv-x="848" d="M110 338T75 368T37 451H119Q123 432 137 422T172 412Q196 412 209 424T222 455Q222 474 209 485T173 496H144V558H170Q190 558 203 567T217 595Q217 614 205 625T171 636Q152 636 140
626T125 601H44Q51 647 81 676T172 705Q237 705 267 674T298 601Q298 575 287 559T264 535T247 527V523Q251 523 264 515T290 490T302 445Q302 404 271 371T172 338Q110 338 75 368ZM194 12L605 700H708V688L296 0H194V12ZM690 81L539 82V141L667 350H772V144H812V81H772V0H690V81ZM690
145V280L604 145H690Z" />
<glyph unicode="&#xbf;" glyph-name="questiondown" horiz-adv-x="576" d="M327 477T346 457T366 409Q366 381 347 361T298 341Q269 341 250 361T230 409Q230 437 249 457T298 477Q327 477 346 457ZM359 265Q359 218 335 183T262 102Q218 60 197 31T176 -36Q176
-83 206 -109T289 -135Q353 -135 380 -96T408 -9V-6H530V-10Q530 -81 500 -135T416 -218T288 -247Q218 -247 165 -221T82 -149T53 -43Q53 -1 68 32T105 90T161 145Q201 182 220 207T239 265V274H359V265Z" />
<glyph unicode="&#xc0;" glyph-name="Agrave" horiz-adv-x="677" d="M467 183H212L150 0H27L283 700H397L653 0H530L467 183ZM435 277L341 549H336L244 277H435ZM162 964H285L384 774L288 773L162 964Z" />
<glyph unicode="&#xc1;" glyph-name="Aacute" horiz-adv-x="677" d="M467 183H212L150 0H27L283 700H397L653 0H530L467 183ZM435 277L341 549H336L244 277H435ZM292 774L392 964H514L388 773L292 774Z" />
<glyph unicode="&#xc2;" glyph-name="Acircumflex" horiz-adv-x="677" d="M467 183H212L150 0H27L283 700H397L653 0H530L467 183ZM435 277L341 549H336L244 277H435ZM292 918H385L525 764H412L340 843H336L266 764H153L292 918Z" />
<glyph unicode="&#xc3;" glyph-name="Atilde" horiz-adv-x="677" d="M467 183H212L150 0H27L283 700H397L653 0H530L467 183ZM435 277L341 549H336L244 277H435ZM182 841T203 877T278 913Q297 913 315 906T353 886Q356 884 366 879T384 871T399 868Q416 868 422
881T427 914H492Q495 861 474 826T400 790Q379 790 361 797T323 817Q320 819 310 824T292 832T277 835Q247 835 249 789H185Q182 841 203 877Z" />
<glyph unicode="&#xc4;" glyph-name="Adieresis" horiz-adv-x="677" d="M467 183H212L150 0H27L283 700H397L653 0H530L467 183ZM435 277L341 549H336L244 277H435ZM430 793T410 813T390 863Q390 893 410 913T460 933Q490 933 510 913T530 863Q530 834 510 814T460
793Q430 793 410 813ZM195 793T175 813T155 863Q155 893 175 913T225 933Q255 933 275 913T295 863Q295 834 275 814T225 793Q195 793 175 813Z" />
<glyph unicode="&#xc5;" glyph-name="Aring" horiz-adv-x="677" d="M467 183H212L150 0H27L283 700H397L653 0H530L467 183ZM435 277L341 549H336L244 277H435ZM299 777T271 804T243 872Q243 911 271 939T338 967Q378 967 405 939T433 872Q433 832 406 805T338
777Q299 777 271 804ZM356 828T369 841T382 872Q382 890 369 902T338 915Q320 915 308 903T295 872Q295 854 307 841T338 828Q356 828 369 841Z" />
<glyph unicode="&#xc6;" glyph-name="AE" horiz-adv-x="963" d="M580 593V404H865V308H580V107H911V0H458V183H241L147 0H10L368 700H911V593H580ZM458 277V593H450L289 277H458Z" />
<glyph unicode="&#xc7;" glyph-name="Ccedilla" horiz-adv-x="703" d="M432 99T478 136T542 232H660Q636 131 567 66T390 -7L376 -48H395Q444 -48 469 -75T495 -141Q495 -185 464 -217T373 -249Q354 -249 336 -245T308 -236L309 -175Q341 -183 373 -183Q403 -183
419 -171T435 -139Q435 -119 421 -111T388 -103H300V-99L326 -6Q238 3 175 53T79 181T46 353Q46 454 83 536T193 666T364 714Q485 714 563 645T665 463H547Q531 527 483 567T366 608Q271 608 222 539T173 354Q173 239 222 169T366 99Q432 99 478 136Z" />
<glyph unicode="&#xc8;" glyph-name="Egrave" horiz-adv-x="568" d="M185 593V404H470V308H185V107H516V0H64V700H516V593H185ZM112 964H235L334 774L238 773L112 964Z" />
<glyph unicode="&#xc9;" glyph-name="Eacute" horiz-adv-x="568" d="M185 593V404H470V308H185V107H516V0H64V700H516V593H185ZM242 774L342 964H464L338 773L242 774Z" />
<glyph unicode="&#xca;" glyph-name="Ecircumflex" horiz-adv-x="568" d="M185 593V404H470V308H185V107H516V0H64V700H516V593H185ZM242 918H335L475 764H362L290 843H286L216 764H103L242 918Z" />
<glyph unicode="&#xcb;" glyph-name="Edieresis" horiz-adv-x="568" d="M185 593V404H470V308H185V107H516V0H64V700H516V593H185ZM380 793T360 813T340 863Q340 893 360 913T410 933Q440 933 460 913T480 863Q480 834 460 814T410 793Q380 793 360 813ZM145 793T125
813T105 863Q105 893 125 913T175 933Q205 933 225 913T245 863Q245 834 225 814T175 793Q145 793 125 813Z" />
<glyph unicode="&#xcc;" glyph-name="Igrave" horiz-adv-x="260" d="M69 700H191V0H69V700ZM-46 964H77L176 774L80 773L-46 964Z" />
<glyph unicode="&#xcd;" glyph-name="Iacute" horiz-adv-x="260" d="M69 700H191V0H69V700ZM84 774L184 964H306L180 773L84 774Z" />
<glyph unicode="&#xce;" glyph-name="Icircumflex" horiz-adv-x="260" d="M69 700H191V0H69V700ZM84 918H177L317 764H204L132 843H128L58 764H-55L84 918Z" />
<glyph unicode="&#xcf;" glyph-name="Idieresis" horiz-adv-x="260" d="M69 700H191V0H69V700ZM222 793T202 813T182 863Q182 893 202 913T252 933Q282 933 302 913T322 863Q322 834 302 814T252 793Q222 793 202 813ZM-13 793T-33 813T-53 863Q-53 893 -33 913T17
933Q47 933 67 913T87 863Q87 834 67 814T17 793Q-13 793 -33 813Z" />
<glyph unicode="&#xd0;" glyph-name="Eth" horiz-adv-x="711" d="M439 701T514 660T631 540T672 351Q672 239 631 160T513 41T335 0H92V316H39V398H92V701H337Q439 701 514 660ZM368 109T417 123T504 191T543 351Q543 501 474 547T314 593H210V398H324V316H210V109H314Q368
109 417 123Z" />
<glyph unicode="&#xd1;" glyph-name="Ntilde" horiz-adv-x="704" d="M63 700H203L518 189H521V700H641V-1H501L187 499H183V-1H63V700ZM196 841T217 877T292 913Q311 913 329 906T367 886Q370 884 380 879T398 871T413 868Q430 868 436 881T441 914H506Q509 861
488 826T414 790Q393 790 375 797T337 817Q334 819 324 824T306 832T291 835Q261 835 263 789H199Q196 841 217 877Z" />
<glyph unicode="&#xd2;" glyph-name="Ograve" horiz-adv-x="729" d="M262 -8T190 39T81 167T44 351Q44 453 81 535T190 666T364 714Q464 714 536 666T645 536T682 351Q682 249 645 168T536 39T364 -8Q262 -8 190 39ZM453 102T503 172T553 353Q553 424 531 481T467
571T364 605Q304 605 261 572T196 481T173 352Q173 281 195 225T260 135T364 102Q453 102 503 172ZM188 964H311L410 774L314 773L188 964Z" />
<glyph unicode="&#xd3;" glyph-name="Oacute" horiz-adv-x="729" d="M262 -8T190 39T81 167T44 351Q44 453 81 535T190 666T364 714Q464 714 536 666T645 536T682 351Q682 249 645 168T536 39T364 -8Q262 -8 190 39ZM453 102T503 172T553 353Q553 424 531 481T467
571T364 605Q304 605 261 572T196 481T173 352Q173 281 195 225T260 135T364 102Q453 102 503 172ZM318 774L418 964H540L414 773L318 774Z" />
<glyph unicode="&#xd4;" glyph-name="Ocircumflex" horiz-adv-x="729" d="M262 -8T190 39T81 167T44 351Q44 453 81 535T190 666T364 714Q464 714 536 666T645 536T682 351Q682 249 645 168T536 39T364 -8Q262 -8 190 39ZM453 102T503 172T553 353Q553 424 531
481T467 571T364 605Q304 605 261 572T196 481T173 352Q173 281 195 225T260 135T364 102Q453 102 503 172ZM318 918H411L551 764H438L366 843H362L292 764H179L318 918Z" />
<glyph unicode="&#xd5;" glyph-name="Otilde" horiz-adv-x="729" d="M262 -8T190 39T81 167T44 351Q44 453 81 535T190 666T364 714Q464 714 536 666T645 536T682 351Q682 249 645 168T536 39T364 -8Q262 -8 190 39ZM453 102T503 172T553 353Q553 424 531 481T467
571T364 605Q304 605 261 572T196 481T173 352Q173 281 195 225T260 135T364 102Q453 102 503 172ZM208 841T229 877T304 913Q323 913 341 906T379 886Q382 884 392 879T410 871T425 868Q442 868 448 881T453 914H518Q521 861 500 826T426 790Q405 790 387 797T349
817Q346 819 336 824T318 832T303 835Q273 835 275 789H211Q208 841 229 877Z" />
<glyph unicode="&#xd6;" glyph-name="Odieresis" horiz-adv-x="729" d="M262 -8T190 39T81 167T44 351Q44 453 81 535T190 666T364 714Q464 714 536 666T645 536T682 351Q682 249 645 168T536 39T364 -8Q262 -8 190 39ZM453 102T503 172T553 353Q553 424 531 481T467
571T364 605Q304 605 261 572T196 481T173 352Q173 281 195 225T260 135T364 102Q453 102 503 172ZM456 793T436 813T416 863Q416 893 436 913T486 933Q516 933 536 913T556 863Q556 834 536 814T486 793Q456 793 436 813ZM221 793T201 813T181 863Q181 893 201
913T251 933Q281 933 301 913T321 863Q321 834 301 814T251 793Q221 793 201 813Z" />
<glyph unicode="&#xd7;" glyph-name="multiply" horiz-adv-x="573" d="M360 312L469 203L395 129L286 238L177 129L104 203L213 312L104 421L178 495L287 386L396 495L469 421L360 312Z" />
<glyph unicode="&#xd8;" glyph-name="Oslash" horiz-adv-x="742" d="M643 570T666 501T689 351Q689 249 652 168T543 39T371 -8Q283 -8 219 27L174 -43H63L144 83Q98 132 75 201T51 351Q51 453 88 535T197 666T371 714Q459 714 525 677L567 743H678L598 619Q643
570 666 501ZM179 260T215 195L462 579Q422 605 370 605Q310 605 267 572T202 481T179 352Q179 260 215 195ZM459 102T509 172T560 353Q560 441 526 506L282 125Q320 102 370 102Q459 102 509 172Z" />
<glyph unicode="&#xd9;" glyph-name="Ugrave" horiz-adv-x="684" d="M212 -10T135 69T58 307V700H179V314Q179 230 213 168T343 106Q436 106 471 168T506 314V700H625V307Q625 149 549 70T343 -10Q212 -10 135 69ZM166 964H289L388 774L292 773L166 964Z" />
<glyph unicode="&#xda;" glyph-name="Uacute" horiz-adv-x="684" d="M212 -10T135 69T58 307V700H179V314Q179 230 213 168T343 106Q436 106 471 168T506 314V700H625V307Q625 149 549 70T343 -10Q212 -10 135 69ZM296 774L396 964H518L392 773L296 774Z" />
<glyph unicode="&#xdb;" glyph-name="Ucircumflex" horiz-adv-x="684" d="M212 -10T135 69T58 307V700H179V314Q179 230 213 168T343 106Q436 106 471 168T506 314V700H625V307Q625 149 549 70T343 -10Q212 -10 135 69ZM296 918H389L529 764H416L344 843H340L270
764H157L296 918Z" />
<glyph unicode="&#xdc;" glyph-name="Udieresis" horiz-adv-x="684" d="M212 -10T135 69T58 307V700H179V314Q179 230 213 168T343 106Q436 106 471 168T506 314V700H625V307Q625 149 549 70T343 -10Q212 -10 135 69ZM434 793T414 813T394 863Q394 893 414 913T464
933Q494 933 514 913T534 863Q534 834 514 814T464 793Q434 793 414 813ZM199 793T179 813T159 863Q159 893 179 913T229 933Q259 933 279 913T299 863Q299 834 279 814T229 793Q199 793 179 813Z" />
<glyph unicode="&#xdd;" glyph-name="Yacute" horiz-adv-x="634" d="M257 0V246L28 700H156L315 373H321L478 700H607L378 246V0H257ZM270 774L370 964H492L366 773L270 774Z" />
<glyph unicode="&#xde;" glyph-name="Thorn" horiz-adv-x="599" d="M399 586T455 552T537 464T564 348Q564 287 538 234T456 148T315 115H182V0H63V700H182V586H315Q399 586 455 552ZM361 216T403 246T446 348Q446 420 404 449T297 478H182V216H297Q361 216 403 246Z" />
<glyph unicode="&#xdf;" glyph-name="germandbls" d="M223 620T203 581T183 493V-2H63V483Q63 584 115 650T288 717Q370 717 422 689T497 616T520 523Q520 470 497 437T448 390T413 375V369Q422 369 452 353T509 298T536 199Q536 141 509 94T430 19T309 -9Q271
-9 244 -3V97Q264 93 288 93Q353 93 390 125T427 214Q427 279 385 304T289 330H235V420H292Q342 420 375 444T408 519Q408 569 378 594T296 620Q223 620 203 581Z" />
<glyph unicode="&#xe0;" glyph-name="agrave" horiz-adv-x="618" d="M152 -8T96 68T40 266Q40 390 97 465T255 541Q324 541 363 510T420 440H428V528H550V0H428V97H420Q401 56 361 24T252 -8Q152 -8 96 68ZM360 92T393 143T427 267Q427 340 394 390T295 441Q228
441 196 391T163 267Q163 194 196 143T295 92Q360 92 393 143ZM130 792H253L352 602L256 601L130 792Z" />
<glyph unicode="&#xe1;" glyph-name="aacute" horiz-adv-x="618" d="M152 -8T96 68T40 266Q40 390 97 465T255 541Q324 541 363 510T420 440H428V528H550V0H428V97H420Q401 56 361 24T252 -8Q152 -8 96 68ZM360 92T393 143T427 267Q427 340 394 390T295 441Q228
441 196 391T163 267Q163 194 196 143T295 92Q360 92 393 143ZM261 602L361 792H483L357 601L261 602Z" />
<glyph unicode="&#xe2;" glyph-name="acircumflex" horiz-adv-x="618" d="M152 -8T96 68T40 266Q40 390 97 465T255 541Q324 541 363 510T420 440H428V528H550V0H428V97H420Q401 56 361 24T252 -8Q152 -8 96 68ZM360 92T393 143T427 267Q427 340 394 390T295 441Q228
441 196 391T163 267Q163 194 196 143T295 92Q360 92 393 143ZM261 746H354L494 592H381L309 671H305L235 592H122L261 746Z" />
<glyph unicode="&#xe3;" glyph-name="atilde" horiz-adv-x="618" d="M152 -8T96 68T40 266Q40 390 97 465T255 541Q324 541 363 510T420 440H428V528H550V0H428V97H420Q401 56 361 24T252 -8Q152 -8 96 68ZM360 92T393 143T427 267Q427 340 394 390T295 441Q228
441 196 391T163 267Q163 194 196 143T295 92Q360 92 393 143ZM150 669T171 705T246 741Q265 741 283 734T321 714Q324 712 334 707T352 699T367 696Q384 696 390 709T395 742H460Q463 689 442 654T368 618Q347 618 329 625T291 645Q288 647 278 652T260 660T245
663Q215 663 217 617H153Q150 669 171 705Z" />
<glyph unicode="&#xe4;" glyph-name="adieresis" horiz-adv-x="618" d="M152 -8T96 68T40 266Q40 390 97 465T255 541Q324 541 363 510T420 440H428V528H550V0H428V97H420Q401 56 361 24T252 -8Q152 -8 96 68ZM360 92T393 143T427 267Q427 340 394 390T295 441Q228
441 196 391T163 267Q163 194 196 143T295 92Q360 92 393 143ZM399 621T379 641T359 691Q359 721 379 741T429 761Q459 761 479 741T499 691Q499 662 479 642T429 621Q399 621 379 641ZM164 621T144 641T124 691Q124 721 144 741T194 761Q224 761 244 741T264 691Q264
662 244 642T194 621Q164 621 144 641Z" />
<glyph unicode="&#xe5;" glyph-name="aring" horiz-adv-x="618" d="M152 -8T96 68T40 266Q40 390 97 465T255 541Q324 541 363 510T420 440H428V528H550V0H428V97H420Q401 56 361 24T252 -8Q152 -8 96 68ZM360 92T393 143T427 267Q427 340 394 390T295 441Q228
441 196 391T163 267Q163 194 196 143T295 92Q360 92 393 143ZM267 605T239 632T211 700Q211 739 239 767T306 795Q346 795 373 767T401 700Q401 660 374 633T306 605Q267 605 239 632ZM324 656T337 669T350 700Q350 718 337 730T306 743Q288 743 276 731T263 700Q263
682 275 669T306 656Q324 656 337 669Z" />
<glyph unicode="&#xe6;" glyph-name="ae" horiz-adv-x="921" d="M145 -8T96 36T46 152Q46 235 112 270T275 306L385 307V339Q385 377 362 410T280 444Q234 444 206 422T172 363H59Q64 403 86 443T155 511T273 539Q337 539 381 514T448 442H455Q483 488 530 514T640
541Q725 541 778 499T854 394T877 265V232H505V223Q505 166 542 128T635 90Q677 90 707 110T752 166H871Q851 90 791 41T637 -8Q567 -8 516 22T436 105H430Q403 51 351 22T231 -8Q145 -8 96 36ZM760 307Q757 379 724 412T636 445Q578 445 544 408T507 307H760ZM296
80T325 96T369 139T385 195V231H281Q234 231 199 217T164 157Q164 121 189 101T257 80Q296 80 325 96Z" />
<glyph unicode="&#xe7;" glyph-name="ccedilla" horiz-adv-x="574" d="M348 91T378 122T416 202H534Q523 119 470 61T327 -6L314 -45H333Q382 -45 407 -72T433 -138Q433 -182 402 -214T311 -246Q292 -246 274 -242T246 -233L247 -172Q279 -180 311 -180Q341 -180
357 -168T373 -136Q373 -116 359 -108T326 -100H238V-96L263 -6Q190 2 141 42T68 141T44 267Q44 338 71 400T155 502T296 541Q401 541 461 481T534 331H416Q409 380 379 410T297 441Q230 441 197 391T164 267Q164 192 197 142T297 91Q348 91 378 122Z" />
<glyph unicode="&#xe8;" glyph-name="egrave" horiz-adv-x="578" d="M212 -8T156 31T72 132T44 266Q44 338 71 400T155 502T295 541Q405 541 469 470T534 265V232H162V224Q162 189 178 158T224 109T292 90Q335 90 365 110T410 166H529Q508 90 448 41T294 -8Q212
-8 156 31ZM417 312Q415 384 382 417T294 451Q236 451 202 414T165 312H417ZM119 792H242L341 602L245 601L119 792Z" />
<glyph unicode="&#xe9;" glyph-name="eacute" horiz-adv-x="578" d="M212 -8T156 31T72 132T44 266Q44 338 71 400T155 502T295 541Q405 541 469 470T534 265V232H162V224Q162 189 178 158T224 109T292 90Q335 90 365 110T410 166H529Q508 90 448 41T294 -8Q212
-8 156 31ZM417 312Q415 384 382 417T294 451Q236 451 202 414T165 312H417ZM249 602L349 792H471L345 601L249 602Z" />
<glyph unicode="&#xea;" glyph-name="ecircumflex" horiz-adv-x="578" d="M212 -8T156 31T72 132T44 266Q44 338 71 400T155 502T295 541Q405 541 469 470T534 265V232H162V224Q162 189 178 158T224 109T292 90Q335 90 365 110T410 166H529Q508 90 448 41T294
-8Q212 -8 156 31ZM417 312Q415 384 382 417T294 451Q236 451 202 414T165 312H417ZM249 746H342L482 592H369L297 671H293L223 592H110L249 746Z" />
<glyph unicode="&#xeb;" glyph-name="edieresis" horiz-adv-x="578" d="M212 -8T156 31T72 132T44 266Q44 338 71 400T155 502T295 541Q405 541 469 470T534 265V232H162V224Q162 189 178 158T224 109T292 90Q335 90 365 110T410 166H529Q508 90 448 41T294 -8Q212
-8 156 31ZM417 312Q415 384 382 417T294 451Q236 451 202 414T165 312H417ZM387 621T367 641T347 691Q347 721 367 741T417 761Q447 761 467 741T487 691Q487 662 467 642T417 621Q387 621 367 641ZM152 621T132 641T112 691Q112 721 132 741T182 761Q212 761
232 741T252 691Q252 662 232 642T182 621Q152 621 132 641Z" />
<glyph unicode="&#xec;" glyph-name="igrave" horiz-adv-x="273" d="M76 528H197V0H76V528ZM-40 792H83L182 602L86 601L-40 792Z" />
<glyph unicode="&#xed;" glyph-name="iacute" horiz-adv-x="273" d="M76 528H197V0H76V528ZM90 602L190 792H312L186 601L90 602Z" />
<glyph unicode="&#xee;" glyph-name="icircumflex" horiz-adv-x="273" d="M76 528H197V0H76V528ZM90 746H183L323 592H210L138 671H134L64 592H-49L90 746Z" />
<glyph unicode="&#xef;" glyph-name="idieresis" horiz-adv-x="273" d="M76 528H197V0H76V528ZM228 621T208 641T188 691Q188 721 208 741T258 761Q288 761 308 741T328 691Q328 662 308 642T258 621Q228 621 208 641ZM-7 621T-27 641T-47 691Q-47 721 -27 741T23
761Q53 761 73 741T93 691Q93 662 73 642T23 621Q-7 621 -27 641Z" />
<glyph unicode="&#xf0;" glyph-name="eth" horiz-adv-x="609" d="M538 609T538 458V277Q538 203 511 138T426 33T283 -8Q198 -8 141 32T57 137T29 277Q29 350 54 410T129 505T245 540Q313 540 352 510T410 442H417V465Q417 575 362 640L275 590L240 649L306 687Q254
716 196 716V807Q239 808 297 794T406 745L497 797L531 738L460 697Q538 609 538 458ZM350 92T383 143T417 268Q417 340 384 391T284 443Q218 443 185 392T152 266Q152 193 184 143T283 92Q350 92 383 143Z" />
<glyph unicode="&#xf1;" glyph-name="ntilde" horiz-adv-x="605" d="M63 528H185V442H192Q211 483 252 512T354 541Q456 541 501 475T546 322V0H425V303Q425 368 394 403T307 439Q248 439 217 401T185 303V0H63V528ZM146 669T167 705T242 741Q261 741 279 734T317
714Q320 712 330 707T348 699T363 696Q380 696 386 709T391 742H456Q459 689 438 654T364 618Q343 618 325 625T287 645Q284 647 274 652T256 660T241 663Q211 663 213 617H149Q146 669 167 705Z" />
<glyph unicode="&#xf2;" glyph-name="ograve" horiz-adv-x="590" d="M213 -8T157 30T72 130T44 266Q44 339 72 401T156 502T295 540Q377 540 433 502T517 402T545 267Q545 194 518 131T434 30T295 -8Q213 -8 157 30ZM358 92T392 142T426 267Q426 342 392 391T295
441Q231 441 198 392T164 267Q164 192 198 142T295 92Q358 92 392 142ZM118 792H241L340 602L244 601L118 792Z" />
<glyph unicode="&#xf3;" glyph-name="oacute" horiz-adv-x="590" d="M213 -8T157 30T72 130T44 266Q44 339 72 401T156 502T295 540Q377 540 433 502T517 402T545 267Q545 194 518 131T434 30T295 -8Q213 -8 157 30ZM358 92T392 142T426 267Q426 342 392 391T295
441Q231 441 198 392T164 267Q164 192 198 142T295 92Q358 92 392 142ZM249 602L349 792H471L345 601L249 602Z" />
<glyph unicode="&#xf4;" glyph-name="ocircumflex" horiz-adv-x="590" d="M213 -8T157 30T72 130T44 266Q44 339 72 401T156 502T295 540Q377 540 433 502T517 402T545 267Q545 194 518 131T434 30T295 -8Q213 -8 157 30ZM358 92T392 142T426 267Q426 342 392
391T295 441Q231 441 198 392T164 267Q164 192 198 142T295 92Q358 92 392 142ZM249 746H342L482 592H369L297 671H293L223 592H110L249 746Z" />
<glyph unicode="&#xf5;" glyph-name="otilde" horiz-adv-x="590" d="M213 -8T157 30T72 130T44 266Q44 339 72 401T156 502T295 540Q377 540 433 502T517 402T545 267Q545 194 518 131T434 30T295 -8Q213 -8 157 30ZM358 92T392 142T426 267Q426 342 392 391T295
441Q231 441 198 392T164 267Q164 192 198 142T295 92Q358 92 392 142ZM138 669T159 705T234 741Q253 741 271 734T309 714Q312 712 322 707T340 699T355 696Q372 696 378 709T383 742H448Q451 689 430 654T356 618Q335 618 317 625T279 645Q276 647 266 652T248
660T233 663Q203 663 205 617H141Q138 669 159 705Z" />
<glyph unicode="&#xf6;" glyph-name="odieresis" horiz-adv-x="590" d="M213 -8T157 30T72 130T44 266Q44 339 72 401T156 502T295 540Q377 540 433 502T517 402T545 267Q545 194 518 131T434 30T295 -8Q213 -8 157 30ZM358 92T392 142T426 267Q426 342 392 391T295
441Q231 441 198 392T164 267Q164 192 198 142T295 92Q358 92 392 142ZM387 621T367 641T347 691Q347 721 367 741T417 761Q447 761 467 741T487 691Q487 662 467 642T417 621Q387 621 367 641ZM152 621T132 641T112 691Q112 721 132 741T182 761Q212 761 232 741T252
691Q252 662 232 642T182 621Q152 621 132 641Z" />
<glyph unicode="&#xf7;" glyph-name="divide" horiz-adv-x="600" d="M251 433T231 454T210 505Q210 535 230 556T282 577Q313 577 333 556T354 505Q354 475 333 454T282 433Q251 433 231 454ZM75 359H487V261H75V359ZM251 49T231 70T210 121Q210 151 230 171T282
192Q313 192 333 172T354 121Q354 91 333 70T282 49Q251 49 231 70Z" />
<glyph unicode="&#xf8;" glyph-name="oslash" horiz-adv-x="590" d="M501 446T523 389T545 267Q545 194 518 132T434 31T295 -7Q239 -7 193 12L165 -38H78L129 52Q87 90 66 146T44 266Q44 340 72 402T156 503T295 541Q348 541 393 524L425 581H512L458 484Q501
446 523 389ZM164 205T188 158L342 433Q321 442 295 442Q231 442 198 393T164 268Q164 205 188 158ZM358 92T392 142T426 268Q426 334 400 381L244 103Q268 92 295 92Q358 92 392 142Z" />
<glyph unicode="&#xf9;" glyph-name="ugrave" horiz-adv-x="595" d="M536 0H414V89H408Q389 48 349 19T250 -10Q181 -10 139 23T80 107T63 210V528H184V229Q184 165 214 129T297 93Q354 93 384 131T414 229V528H536V0ZM112 792H235L334 602L238 601L112 792Z" />
<glyph unicode="&#xfa;" glyph-name="uacute" horiz-adv-x="595" d="M536 0H414V89H408Q389 48 349 19T250 -10Q181 -10 139 23T80 107T63 210V528H184V229Q184 165 214 129T297 93Q354 93 384 131T414 229V528H536V0ZM242 602L342 792H464L338 601L242 602Z" />
<glyph unicode="&#xfb;" glyph-name="ucircumflex" horiz-adv-x="595" d="M536 0H414V89H408Q389 48 349 19T250 -10Q181 -10 139 23T80 107T63 210V528H184V229Q184 165 214 129T297 93Q354 93 384 131T414 229V528H536V0ZM242 746H335L475 592H362L290 671H286L216
592H103L242 746Z" />
<glyph unicode="&#xfc;" glyph-name="udieresis" horiz-adv-x="595" d="M536 0H414V89H408Q389 48 349 19T250 -10Q181 -10 139 23T80 107T63 210V528H184V229Q184 165 214 129T297 93Q354 93 384 131T414 229V528H536V0ZM380 621T360 641T340 691Q340 721 360
741T410 761Q440 761 460 741T480 691Q480 662 460 642T410 621Q380 621 360 641ZM145 621T125 641T105 691Q105 721 125 741T175 761Q205 761 225 741T245 691Q245 662 225 642T175 621Q145 621 125 641Z" />
<glyph unicode="&#xfd;" glyph-name="yacute" horiz-adv-x="542" d="M281 -111T266 -138T212 -191T112 -217Q86 -217 67 -213T43 -207V-121Q59 -125 86 -125Q119 -125 139 -114T171 -84T196 -31L215 17L24 528H147L272 150H278L409 528H533L295 -74Q281 -111 266
-138ZM229 602L329 792H451L325 601L229 602Z" />
<glyph unicode="&#xfe;" glyph-name="thorn" horiz-adv-x="621" d="M292 -8T252 23T192 95H184V-239H63V751H184V442H192Q209 479 249 510T358 541Q461 541 517 466T573 266Q573 144 517 68T360 -8Q292 -8 252 23ZM384 90T417 141T450 266Q450 339 417 389T317
440Q252 440 219 390T185 266Q185 193 218 142T317 90Q384 90 417 141Z" />
<glyph unicode="&#xff;" glyph-name="ydieresis" horiz-adv-x="542" d="M281 -111T266 -138T212 -191T112 -217Q86 -217 67 -213T43 -207V-121Q59 -125 86 -125Q119 -125 139 -114T171 -84T196 -31L215 17L24 528H147L272 150H278L409 528H533L295 -74Q281 -111
266 -138ZM367 621T347 641T327 691Q327 721 347 741T397 761Q427 761 447 741T467 691Q467 662 447 642T397 621Q367 621 347 641ZM132 621T112 641T92 691Q92 721 112 741T162 761Q192 761 212 741T232 691Q232 662 212 642T162 621Q132 621 112 641Z" />
<glyph unicode="&#x2013;" glyph-name="endash" horiz-adv-x="648" d="M108 361H541V264H108V361Z" />
<glyph unicode="&#x2014;" glyph-name="emdash" horiz-adv-x="762" d="M108 361H654V264H108V361Z" />
<glyph unicode="&#x2018;" glyph-name="quoteleft" horiz-adv-x="290" d="M187 736Q124 709 124 657Q124 630 134 624T165 617Q196 616 208 599T220 560Q220 530 201 511T146 491Q100 491 83 516T65 579V618Q65 684 98 723T187 776V736Z" />
<glyph unicode="&#x2019;" glyph-name="quoteright" horiz-adv-x="275" d="M111 511Q175 537 175 590Q175 609 170 617T157 627T134 630Q103 631 91 648T79 687Q79 717 98 736T153 756Q199 756 216 731T234 668V629Q234 563 201 524T111 470V511Z" />
<glyph unicode="&#x201a;" glyph-name="quotesinglbase" horiz-adv-x="303" d="M105 -133Q172 -106 172 -51Q172 -24 161 -17T129 -9Q97 -8 85 9T72 50Q72 82 91 102T149 122Q197 122 215 95T233 30V-11Q233 -79 199 -119T105 -176V-133Z" />
<glyph unicode="&#x201c;" glyph-name="quotedblleft" horiz-adv-x="516" d="M426 737Q362 711 362 658Q362 639 367 631T380 621T403 618Q434 617 446 600T458 561Q458 531 439 512T384 492Q338 492 321 517T303 580V619Q303 685 336 724T426 778V737ZM187 735Q124
708 124 656Q124 629 134 623T165 616Q196 615 208 598T220 559Q220 529 201 510T146 490Q100 490 83 515T65 578V617Q65 683 98 722T187 775V735Z" />
<glyph unicode="&#x201d;" glyph-name="quotedblright" horiz-adv-x="536" d="M107 520Q171 546 171 599Q171 626 161 632T129 639Q99 640 87 657T75 696Q75 726 94 745T149 765Q195 765 212 739T230 677V638Q230 572 197 533T107 480V520ZM345 520Q408 545 408
598Q408 625 398 631T367 638Q337 639 325 656T313 695Q313 725 332 745T387 765Q433 765 450 739T467 676V637Q467 571 434 532T345 479V520Z" />
<glyph unicode="&#x201e;" glyph-name="quotedblbase" horiz-adv-x="533" d="M104 -128Q168 -102 168 -49Q168 -30 163 -22T150 -12T127 -9Q96 -8 84 9T72 48Q72 78 91 97T146 117Q192 117 209 92T227 29V-10Q227 -76 194 -115T104 -169V-128ZM342 -128Q405 -101
405 -49Q405 -30 400 -22T387 -12T364 -9Q333 -8 322 9T310 48Q310 78 329 97T384 117Q430 117 447 92T464 29V-10Q464 -76 431 -115T342 -169V-128Z" />
<glyph unicode="&#x2022;" glyph-name="bullet" horiz-adv-x="452" d="M127 257T95 290T63 370Q63 417 95 449T175 482Q223 482 255 450T287 370Q287 323 255 290T175 257Q127 257 95 290Z" />
<glyph unicode="&#x2039;" glyph-name="guilsinglleft" horiz-adv-x="391" d="M353 98H236L38 313L236 528H353L161 312L353 98Z" />
<glyph unicode="&#x203a;" glyph-name="guilsinglright" horiz-adv-x="391" d="M38 528H155L353 313L155 98H38L230 312L38 528Z" />
</font>
</defs>
</svg>
